<svg width="32" height="32" viewBox="0 0 32 32" xmlns="http://www.w3.org/2000/svg">
<path fill-rule="evenodd" clip-rule="evenodd" d="M29.3332 16.0001C29.3332 23.3641 23.3638 29.3334 15.9998 29.3334C8.63584 29.3334 2.6665 23.3641 2.6665 16.0001C2.6665 8.63608 8.63584 2.66675 15.9998 2.66675C23.3638 2.66675 29.3332 8.63608 29.3332 16.0001ZM19.9998 12.0001C19.9998 13.0609 19.5784 14.0784 18.8283 14.8285C18.0781 15.5787 17.0607 16.0001 15.9998 16.0001C14.939 16.0001 13.9216 15.5787 13.1714 14.8285C12.4213 14.0784 11.9998 13.0609 11.9998 12.0001C11.9998 10.9392 12.4213 9.9218 13.1714 9.17165C13.9216 8.42151 14.939 8.00008 15.9998 8.00008C17.0607 8.00008 18.0781 8.42151 18.8283 9.17165C19.5784 9.9218 19.9998 10.9392 19.9998 12.0001ZM15.9998 27.3334C18.2882 27.3371 20.5236 26.6447 22.4092 25.3481C23.2145 24.7947 23.5585 23.7414 23.0892 22.8841C22.1198 21.1067 20.1198 20.0001 15.9998 20.0001C11.8798 20.0001 9.87984 21.1067 8.90917 22.8841C8.44117 23.7414 8.78517 24.7947 9.5905 25.3481C11.4761 26.6447 13.7115 27.3371 15.9998 27.3334Z" />
</svg>
