<svg width="54" height="54" viewBox="0 0 54 54" fill="none" xmlns="http://www.w3.org/2000/svg">
<path d="M49.0725 28.665L47.2275 27.2475V26.7525L49.0275 25.335C49.3875 25.065 49.4775 24.57 49.2525 24.1875L47.34 20.8575C47.2612 20.7187 47.1465 20.6037 47.008 20.5245C46.8694 20.4453 46.7121 20.4049 46.5525 20.4075C46.44 20.4075 46.3275 20.43 46.215 20.475L44.0775 21.33C43.8975 21.2175 43.83 21.1725 43.65 21.0825L43.3125 18.81C43.2863 18.5888 43.1806 18.3846 43.015 18.2356C42.8494 18.0866 42.6353 18.0028 42.4125 18H38.565C38.115 18 37.7325 18.3375 37.665 18.765L37.35 21.0375C37.2825 21.0825 37.1925 21.105 37.125 21.15L36.9225 21.285L34.785 20.43C34.583 20.3467 34.3575 20.3396 34.1506 20.4099C33.9437 20.4803 33.7694 20.6233 33.66 20.8125L31.7475 24.1425C31.5225 24.525 31.6125 25.02 31.9725 25.29L33.7725 26.7075V27.225L31.9725 28.6425C31.8005 28.7727 31.6825 28.9616 31.641 29.1733C31.5995 29.385 31.6374 29.6045 31.7475 29.79L33.66 33.12C33.8175 33.4125 34.1325 33.57 34.4475 33.57C34.56 33.57 34.6725 33.5475 34.785 33.5025L36.9225 32.67C37.1025 32.7825 37.1925 32.8275 37.3725 32.9175L37.71 35.19C37.7775 35.64 38.16 35.955 38.61 35.955H42.4575C42.9075 35.955 43.29 35.6175 43.3575 35.19L43.695 32.9175C43.7625 32.8725 43.8525 32.85 43.92 32.805L44.1225 32.67L46.26 33.525C46.462 33.6083 46.6874 33.6154 46.8944 33.5451C47.1013 33.4747 47.2756 33.3317 47.385 33.1425L49.2975 29.8125C49.4076 29.627 49.4455 29.4075 49.404 29.1958C49.3625 28.9841 49.2445 28.7952 49.0725 28.665ZM40.5 30.375C38.6325 30.375 37.125 28.8675 37.125 27C37.125 25.1325 38.6325 23.625 40.5 23.625C42.3675 23.625 43.875 25.1325 43.875 27C43.875 28.8675 42.3675 30.375 40.5 30.375ZM38.25 38.25H42.75V47.25C42.75 49.725 40.725 51.75 38.25 51.75H15.75C13.275 51.75 11.25 49.725 11.25 47.25V6.75C11.25 4.275 13.275 2.25 15.75 2.25H38.25C40.725 2.25 42.75 4.275 42.75 6.75V15.75H38.25V13.5H15.75V40.5H38.25V38.25Z" fill="#131313"/>
</svg>
