<svg width="54" height="54" viewBox="0 0 54 54" fill="none" xmlns="http://www.w3.org/2000/svg">
<path d="M40.5 9H10.125C9.22989 9 8.37145 9.35558 7.73851 9.98851C7.10558 10.6214 6.75 11.4799 6.75 12.375V43.875C6.75 44.7701 7.10558 45.6285 7.73851 46.2615C8.37145 46.8944 9.22989 47.25 10.125 47.25H43.875C44.7701 47.25 45.6285 46.8944 46.2615 46.2615C46.8944 45.6285 47.25 44.7701 47.25 43.875V20.25" stroke="#131313" stroke-width="4" stroke-linecap="round" stroke-linejoin="round"/>
<path d="M18 27V38.25M36.2734 14.0456L41.0456 9.27338L36.2734 4.5V14.0456ZM27 19.125V38.25V19.125ZM36 27V38.25V27Z" stroke="#131313" stroke-width="4" stroke-linecap="round" stroke-linejoin="round"/>
</svg>
