<svg width="24" height="25" viewBox="0 0 24 25" fill="none" xmlns="http://www.w3.org/2000/svg">
<g clip-path="url(#clip0_1545_159)">
<path d="M3 9.5C3 8.96957 3.21071 8.46086 3.58579 8.08579C3.96086 7.71071 4.46957 7.5 5 7.5H19C19.5304 7.5 20.0391 7.71071 20.4142 8.08579C20.7893 8.46086 21 8.96957 21 9.5V18.5C21 19.0304 20.7893 19.5391 20.4142 19.9142C20.0391 20.2893 19.5304 20.5 19 20.5H5C4.46957 20.5 3.96086 20.2893 3.58579 19.9142C3.21071 19.5391 3 19.0304 3 18.5V9.5Z" stroke="white" stroke-width="2" stroke-linecap="round" stroke-linejoin="round"/>
<path d="M8 7.5V5.5C8 4.96957 8.21071 4.46086 8.58579 4.08579C8.96086 3.71071 9.46957 3.5 10 3.5H14C14.5304 3.5 15.0391 3.71071 15.4142 4.08579C15.7893 4.46086 16 4.96957 16 5.5V7.5" stroke="white" stroke-width="2" stroke-linecap="round" stroke-linejoin="round"/>
<circle cx="12" cy="12" r="1" fill="white"/>
</g>
<defs>
<clipPath id="clip0_1545_159">
<rect width="24" height="24" fill="white" transform="translate(0 0.5)"/>
</clipPath>
</defs>
</svg>
