<svg width="18" height="22" viewBox="0 0 18 22" fill="none" xmlns="http://www.w3.org/2000/svg">
<path d="M9.01261 9.29842C11.5176 9.29842 13.5836 7.21747 13.5836 4.63604C13.5836 2.08095 11.5176 0 9.01261 0C6.50762 0 4.44165 2.08095 4.44165 4.66238C4.44165 7.21747 6.50762 9.29842 9.01261 9.29842ZM9.01261 1.05365C10.9495 1.05365 12.5506 2.66045 12.5506 4.66238C12.5506 6.63797 10.9753 8.27112 9.01261 8.27112C7.07576 8.27112 5.47464 6.66431 5.47464 4.66238C5.47464 2.66045 7.07576 1.05365 9.01261 1.05365Z" fill="#494949"/>
<path d="M12.9898 9.56152C12.8348 9.56152 12.7057 9.61421 12.6024 9.71957C11.6469 10.6679 10.3557 11.1947 9.0128 11.1947C7.66992 11.1947 6.40451 10.6679 5.42317 9.71957C5.31988 9.61421 5.16493 9.56152 5.03581 9.56152C2.22092 9.77225 0 12.1956 0 15.0932V17.6483C0 19.5448 1.49783 21.0726 3.3572 21.0726H14.6426C16.5019 21.0726 17.9998 19.5448 17.9998 17.6483V15.0932C18.0256 12.1956 15.8047 9.77225 12.9898 9.56152ZM16.9926 17.6483C16.9926 18.9653 15.9596 20.019 14.6684 20.019H3.3572C2.06597 20.019 1.03299 18.9653 1.03299 17.6483V15.0932C1.03299 12.8278 2.71159 10.9313 4.88086 10.6415C6.01714 11.6952 7.46332 12.2483 9.0128 12.2483C10.5623 12.2483 12.0085 11.6688 13.1447 10.6415C15.314 10.9049 16.9926 12.8278 16.9926 15.0932V17.6483Z" fill="#494949"/>
<path d="M11.8793 14.3299C11.6727 14.1192 11.3628 14.1192 11.1562 14.3299C10.9496 14.5407 10.9496 14.8567 11.1562 15.0675L12.1117 16.0684L11.1562 17.0431C10.9496 17.2538 10.9496 17.5699 11.1562 17.7806C11.2595 17.886 11.3886 17.9387 11.5177 17.9387C11.6468 17.9387 11.776 17.886 11.8793 17.7806L13.1963 16.4372C13.4029 16.2265 13.4029 15.9104 13.1963 15.6997L11.8793 14.3299Z" fill="#494949"/>
<path d="M9.99399 12.9338C9.70992 12.8548 9.42585 13.0129 9.34838 13.3026L7.9022 18.5445C7.82473 18.8343 7.97967 19.124 8.26374 19.203C8.31539 19.2294 8.36704 19.2294 8.39287 19.2294C8.62529 19.2294 8.83189 19.0713 8.88354 18.8343L10.3297 13.5924C10.4072 13.3026 10.2522 13.0129 9.99399 12.9338Z" fill="#494949"/>
<path d="M6.86941 14.3299C6.66281 14.1192 6.35292 14.1192 6.14632 14.3299L4.82926 15.6733C4.62267 15.884 4.62267 16.2001 4.82926 16.4109L6.14632 17.7543C6.24962 17.8596 6.37874 17.9123 6.50787 17.9123C6.63699 17.9123 6.76611 17.8596 6.86941 17.7543C7.07601 17.5435 7.07601 17.2274 6.86941 17.0167L5.9139 16.0684L6.86941 15.0938C7.07601 14.8831 7.07601 14.5407 6.86941 14.3299Z" fill="#494949"/>
</svg>
