<svg width="40" height="40" viewBox="0 0 40 40" fill="none" xmlns="http://www.w3.org/2000/svg">
<path d="M21 18C20.2 17.8 19.6 17.6 19 17C18.4 16.8 18 16.4 18 16C18 15.6 18.6 14.2 19 14C19.6 13.6 20.4 13.8 21 14C22.2 14 22.4 14.2 23 15L25 13C24.4 12.4 23.6 11.4 23 11C22.4 10.6 21.8 11 21 11V8H19V11C18 11.2 16.8 11.2 16 12C15.2 13 14.8 14.8 15 16C15 17.2 15.2 18.2 16 19C17 20 18.8 20.4 20 21C20.6 21.2 21.4 21.6 22 22C22.4 22.4 22 23.4 22 24C22 24.6 22.4 25.4 22 26C21.4 26.6 20.6 26 20 26C19.2 26 17.6 26.6 17 26C16.4 25.6 16.4 24.6 16 24L14 26C14.6 26.8 15.2 27.4 16 28C17 28.6 17.8 29 19 29V32H21V29C22.2 28.8 23.2 27.8 24 27C25 26 26 24.4 26 23C26 21.8 25 20.8 24 20C23 19 22.2 18.4 21 18ZM20 4C11.2 4 4 11.2 4 20C4 28.8 11.2 36 20 36C28.8 36 36 28.8 36 20C36 11.2 28.8 4 20 4ZM20 34C12.4 34 6 27.6 6 20C6 12.4 12.4 6 20 6C27.6 6 34 12.4 34 20C34 27.6 27.6 34 20 34Z" fill="white"/>
</svg>
