<svg width="54" height="54" viewBox="0 0 54 54" fill="none" xmlns="http://www.w3.org/2000/svg">
<g clip-path="url(#clip0_2330_3607)">
<path d="M13.5 33.75H7.98187C7.68941 33.2344 7.26467 32.8062 6.75148 32.5095C6.23829 32.2129 5.65524 32.0585 5.0625 32.0625C4.16739 32.0625 3.30895 32.418 2.67601 33.051C2.04308 33.6839 1.6875 34.5423 1.6875 35.4375C1.6875 36.3326 2.04308 37.191 2.67601 37.8239C3.30895 38.4569 4.16739 38.8125 5.0625 38.8125C5.65524 38.8164 6.23829 38.662 6.75148 38.3654C7.26467 38.0687 7.68941 37.6405 7.98187 37.125H13.5V33.75Z" fill="#131313"/>
<path d="M48.9375 15.1875C48.3448 15.1835 47.7617 15.3379 47.2485 15.6345C46.7353 15.9312 46.3106 16.3594 46.0181 16.875H40.5V20.25H46.0181C46.3144 20.7631 46.7406 21.1893 47.2538 21.4855C47.7671 21.7817 48.3492 21.9376 48.9418 21.9374C49.5344 21.9373 50.1165 21.7811 50.6296 21.4846C51.1427 21.1881 51.5686 20.7618 51.8647 20.2484C52.1607 19.7351 52.3163 19.1529 52.316 18.5603C52.3156 17.9677 52.1592 17.3857 51.8625 16.8727C51.5658 16.3597 51.1393 15.9339 50.6258 15.6381C50.1124 15.3423 49.5301 15.1868 48.9375 15.1875Z" fill="#131313"/>
<path d="M42.886 8.43752L35.4374 0.988892L27.9888 8.43752L33.7499 14.1986V30.375H37.1249V14.1986L42.886 8.43752ZM35.4374 5.76114L38.1138 8.43752L35.4374 11.1139L32.761 8.43752L35.4374 5.76114Z" fill="#131313"/>
<path d="M20.2499 39.8014V23.625H16.8749V39.8014L11.1138 45.5625L18.5624 53.0111L26.011 45.5625L20.2499 39.8014ZM15.886 45.5625L18.5624 42.8861L21.2388 45.5625L18.5624 48.2389L15.886 45.5625Z" fill="#131313"/>
<path d="M30.3749 16.875H14.1985L8.4374 11.1139L0.98877 18.5625L8.4374 26.0111L14.1985 20.25H30.3749V16.875ZM8.4374 21.2389L5.76102 18.5625L8.4374 15.8861L11.1138 18.5625L8.4374 21.2389Z" fill="#131313"/>
<path d="M21.9376 5.0625C21.9376 4.16739 21.582 3.30895 20.9491 2.67601C20.3161 2.04308 19.4577 1.6875 18.5626 1.6875C17.6675 1.6875 16.809 2.04308 16.1761 2.67601C15.5432 3.30895 15.1876 4.16739 15.1876 5.0625C15.1835 5.65528 15.3378 6.2384 15.6344 6.75162C15.9311 7.26484 16.3594 7.68955 16.8751 7.98187V13.5H20.2501V7.98187C20.7658 7.68955 21.1941 7.26484 21.4907 6.75162C21.7874 6.2384 21.9417 5.65528 21.9376 5.0625Z" fill="#131313"/>
<path d="M37.125 46.0181V40.5H33.75V46.0181C33.1066 46.3896 32.6037 46.963 32.3194 47.6494C32.0351 48.3358 31.9852 49.0968 32.1775 49.8145C32.3698 50.5321 32.7935 51.1662 33.3829 51.6185C33.9724 52.0708 34.6945 52.316 35.4375 52.316C36.1805 52.316 36.9026 52.0708 37.4921 51.6185C38.0815 51.1662 38.5052 50.5321 38.6975 49.8145C38.8898 49.0968 38.8399 48.3358 38.5556 47.6494C38.2713 46.963 37.7684 46.3896 37.125 46.0181Z" fill="#131313"/>
<path d="M53.0111 35.4375L45.5625 27.9889L39.8014 33.75H23.625V37.125H39.8014L45.5625 42.8861L53.0111 35.4375ZM45.5625 32.7611L48.2389 35.4375L45.5625 38.1139L42.8861 35.4375L45.5625 32.7611Z" fill="#131313"/>
</g>
<defs>
<clipPath id="clip0_2330_3607">
<rect width="54" height="54" fill="white"/>
</clipPath>
</defs>
</svg>
