<svg width="156" height="49" viewBox="0 0 156 49" fill="none" xmlns="http://www.w3.org/2000/svg">
<path d="M44.3589 37.1952C44.2386 37.059 44.1635 36.9379 44.1034 36.8017C44.0432 36.6655 44.1034 36.5293 44.2537 36.3628L45.7116 34.925C45.8469 34.804 45.9671 34.7737 46.0874 34.804C46.2076 34.8342 46.3429 34.9099 46.4631 35.031C46.6736 35.2429 46.9141 35.4699 47.1846 35.6969C47.4552 35.9239 47.7407 36.1207 48.0564 36.3023C48.372 36.4839 48.7027 36.6352 49.0634 36.7412C49.4241 36.8471 49.8149 36.9076 50.2057 36.9076C50.6416 36.9076 51.0174 36.8471 51.3481 36.726C51.6787 36.605 51.9643 36.4536 52.2048 36.2569C52.4453 36.0601 52.6256 35.8331 52.7459 35.5758C52.8661 35.3185 52.9263 35.0612 52.9263 34.7737C52.9263 34.4256 52.821 34.1229 52.6106 33.8959C52.4002 33.6537 52.1447 33.457 51.8441 33.2905C51.5434 33.124 51.2128 32.9878 50.852 32.8819C50.4913 32.7759 50.1757 32.6851 49.8901 32.6095C48.1466 32.0797 46.8088 31.4441 45.892 30.6722C44.9751 29.9155 44.5092 28.9015 44.5092 27.6756C44.5092 27.0097 44.6445 26.3892 44.93 25.8443C45.2156 25.2995 45.6064 24.8152 46.1174 24.4066C46.6285 24.0131 47.2447 23.6952 47.9662 23.4833C48.6877 23.2715 49.4843 23.1504 50.356 23.1504C51.303 23.1504 52.2198 23.3774 53.1066 23.8314C53.9784 24.2855 54.7449 24.8303 55.3912 25.4962C55.6468 25.7687 55.6468 26.0562 55.3762 26.3438L54.1888 27.6302C54.0385 27.7664 53.9032 27.7967 53.783 27.7513C53.6477 27.7059 53.5124 27.6151 53.3772 27.494C53.1968 27.3426 53.0014 27.1913 52.7759 27.0097C52.5505 26.8281 52.31 26.6767 52.0395 26.5102C51.7689 26.3589 51.4833 26.2378 51.1977 26.1319C50.9122 26.0259 50.5965 25.9805 50.2809 25.9805C50.0103 25.9805 49.7248 25.9957 49.4241 26.0411C49.1235 26.0865 48.853 26.1622 48.6275 26.2984C48.387 26.4194 48.1917 26.6011 48.0263 26.8281C47.861 27.0551 47.7858 27.3578 47.7858 27.7361C47.7858 28.0086 47.861 28.2507 48.0113 28.4626C48.1616 28.6593 48.387 28.841 48.6576 28.9923C48.9432 29.1437 49.2738 29.2799 49.6496 29.4161C50.0254 29.5523 50.4613 29.6734 50.9122 29.8096C51.6487 30.0215 52.3401 30.2787 52.9864 30.536C53.6327 30.8084 54.2038 31.1414 54.6848 31.5349C55.1658 31.9284 55.5566 32.3976 55.8422 32.9273C56.1277 33.4721 56.278 34.1078 56.278 34.8645C56.278 35.6212 56.1127 36.3174 55.782 36.9228C55.4514 37.5433 55.0005 38.073 54.4443 38.5119C53.8882 38.9508 53.2419 39.2838 52.5204 39.5108C51.7839 39.7378 51.0324 39.8589 50.2508 39.8589C49.1235 39.8589 48.0413 39.6167 47.0042 39.1173C45.9671 38.6178 45.1104 37.9822 44.3589 37.1952Z" fill="#131313"/>
<path d="M57.9458 34.3354C57.9458 33.5635 58.0961 32.837 58.3817 32.156C58.6673 31.4749 59.0731 30.8696 59.5841 30.3701C60.0952 29.8555 60.6964 29.462 61.3727 29.1745C62.0491 28.8869 62.7856 28.7356 63.5672 28.7356C64.3488 28.7356 65.0853 28.8869 65.7617 29.1745C66.438 29.462 67.0392 29.8707 67.5352 30.3701C68.0463 30.8847 68.4371 31.4749 68.7377 32.156C69.0383 32.837 69.1736 33.5635 69.1736 34.3354C69.1736 35.1072 69.0233 35.8337 68.7377 36.5147C68.4371 37.1958 68.0463 37.786 67.5352 38.2855C67.0242 38.7849 66.438 39.1784 65.7617 39.4811C65.0853 39.7838 64.3488 39.92 63.5672 39.92C62.7856 39.92 62.0642 39.7686 61.3727 39.4811C60.6813 39.1935 60.0952 38.8 59.5841 38.2855C59.0731 37.786 58.6673 37.1958 58.3817 36.5147C58.0961 35.8337 57.9458 35.1072 57.9458 34.3354ZM60.8317 34.3505C60.8317 34.744 60.8918 35.1072 61.0421 35.4553C61.1774 35.8034 61.3727 36.1061 61.6132 36.3634C61.8537 36.6207 62.1543 36.8326 62.485 36.9688C62.8157 37.1201 63.1764 37.1806 63.5672 37.1806C63.958 37.1806 64.3187 37.105 64.6494 36.9688C64.9801 36.8174 65.2656 36.6207 65.5212 36.3634C65.7616 36.1061 65.957 35.8034 66.1073 35.4553C66.2577 35.1072 66.3178 34.744 66.3178 34.3505C66.3178 33.957 66.2426 33.5938 66.1073 33.2457C65.957 32.8976 65.7616 32.5949 65.5212 32.3376C65.2807 32.0803 64.9801 31.8684 64.6494 31.7171C64.3187 31.5657 63.958 31.4901 63.5672 31.4901C63.1764 31.4901 62.8157 31.5657 62.485 31.7171C62.1543 31.8684 61.8688 32.0803 61.6132 32.3376C61.3727 32.5949 61.1774 32.8976 61.0421 33.2457C60.8918 33.5938 60.8317 33.957 60.8317 34.3505Z" fill="#131313"/>
<path d="M80.0845 39.663C79.8741 39.663 79.7088 39.6327 79.5885 39.5722C79.4683 39.5116 79.3931 39.4208 79.333 39.2997C79.2729 39.1787 79.2278 39.0425 79.1977 38.8911C79.1677 38.7246 79.1226 38.5582 79.0775 38.3614C78.7468 38.7398 78.2658 39.0727 77.6496 39.3603C77.0333 39.6478 76.372 39.7992 75.6656 39.7992C75.0042 39.7992 74.418 39.6932 73.892 39.4814C73.3809 39.2695 72.9451 38.9668 72.5994 38.5884C72.2537 38.2101 71.9981 37.7409 71.8178 37.2263C71.6374 36.6966 71.5623 36.1215 71.5623 35.501V29.5985C71.5623 29.4018 71.6224 29.2353 71.7426 29.1142C71.8629 28.9932 72.0132 28.9326 72.1935 28.9326H73.9671C74.1926 28.9326 74.3579 28.9932 74.4481 29.0991C74.5383 29.205 74.5834 29.3715 74.5834 29.5683V34.9864C74.5834 35.5767 74.7487 36.061 75.0944 36.4091C75.4401 36.7572 75.891 36.9388 76.4472 36.9388C76.6726 36.9388 76.9432 36.8934 77.2287 36.8026C77.5143 36.7118 77.7849 36.5755 78.0254 36.4242C78.2658 36.2577 78.4763 36.061 78.6566 35.834C78.837 35.6069 78.9122 35.3496 78.9122 35.0621V29.5531C78.9122 29.1445 79.1226 28.9478 79.5434 28.9478H81.302C81.4974 28.9478 81.6627 29.0083 81.768 29.1294C81.8732 29.2504 81.9333 29.3867 81.9333 29.5683V39.0273C81.9333 39.4662 81.7078 39.6781 81.2569 39.6781H80.0845V39.663Z" fill="#131313"/>
<path d="M87.1218 29.5516C87.1368 29.6273 87.1669 29.7635 87.227 29.9754C87.2871 30.1873 87.3172 30.3235 87.3322 30.3992C87.4675 30.2176 87.6178 30.036 87.7982 29.8543C87.9785 29.6576 88.189 29.4911 88.4144 29.3398C88.6399 29.1884 88.8954 29.0673 89.166 28.9614C89.4365 28.8555 89.7221 28.8101 90.0377 28.8101C90.1129 28.8101 90.173 28.8101 90.2481 28.8101C90.3233 28.8101 90.3834 28.8101 90.4586 28.8252C90.654 28.8403 90.8945 28.9009 91.15 28.9917C91.4055 29.0825 91.661 29.1884 91.8865 29.3246C92.1119 29.4457 92.3073 29.5819 92.4727 29.7181C92.638 29.8543 92.7131 29.9754 92.7131 30.0965C92.7131 30.1873 92.6831 30.2781 92.6079 30.3992L91.7362 31.8218C91.6009 32.0186 91.4506 32.1245 91.2852 32.1245C91.2251 32.1245 91.1349 32.0942 91.0297 32.0488C90.9095 32.0034 90.7892 31.9429 90.654 31.8672C90.4586 31.7159 90.2782 31.6251 90.1279 31.5645C89.9776 31.504 89.7972 31.4737 89.6018 31.4737C89.2862 31.4737 89.0006 31.5343 88.7451 31.6553C88.4896 31.7764 88.2792 31.9429 88.0988 32.1396C87.9184 32.3364 87.7831 32.5786 87.693 32.8358C87.6028 33.0931 87.5577 33.3353 87.5577 33.5926V39.1167C87.5577 39.4799 87.3623 39.6615 86.9715 39.6615H85.1678C84.7921 39.6615 84.5967 39.4799 84.5967 39.1167V29.5516C84.5967 29.37 84.6568 29.2187 84.777 29.1279C84.8973 29.0371 85.0175 28.9917 85.1678 28.9917H86.5506C86.731 28.9917 86.8513 29.0522 86.9264 29.1733C87.0016 29.2944 87.0767 29.4003 87.1218 29.5516Z" fill="#131313"/>
<path d="M99.1782 37.1958C99.614 37.1806 99.9898 37.1201 100.305 36.999C100.621 36.878 100.952 36.7417 101.297 36.5904C101.448 36.5147 101.538 36.4845 101.598 36.4845C101.703 36.4845 101.808 36.5601 101.929 36.7266L102.861 38.0736C102.921 38.1947 102.951 38.2703 102.951 38.3157C102.951 38.4519 102.906 38.5427 102.816 38.6184C102.725 38.6941 102.65 38.7546 102.575 38.8152C102.094 39.133 101.583 39.3903 101.012 39.6022C100.441 39.814 99.8545 39.92 99.2383 39.92C98.4717 39.92 97.7503 39.7686 97.0739 39.4811C96.3975 39.1935 95.8113 38.8 95.3003 38.2855C94.7893 37.786 94.3985 37.1958 94.1129 36.5147C93.8273 35.8337 93.677 35.1072 93.677 34.3354C93.677 33.5635 93.8273 32.837 94.1129 32.156C94.3985 31.4749 94.8043 30.8696 95.3003 30.3701C95.8113 29.8555 96.3975 29.462 97.0739 29.1745C97.7503 28.8869 98.4717 28.7356 99.2383 28.7356C99.8245 28.7356 100.381 28.8264 100.907 29.0231C101.433 29.2199 101.944 29.4772 102.47 29.8101H102.455C102.575 29.8858 102.665 29.9615 102.74 30.0523C102.816 30.1431 102.846 30.2339 102.846 30.355C102.846 30.3853 102.846 30.4307 102.831 30.4761C102.831 30.5215 102.801 30.5669 102.77 30.5971L101.929 32.0652C101.899 32.1257 101.854 32.1711 101.793 32.2165C101.733 32.2619 101.658 32.2771 101.583 32.2771C101.523 32.2771 101.403 32.2317 101.237 32.1257C100.997 31.929 100.681 31.7625 100.32 31.6263C99.9597 31.5052 99.599 31.4447 99.2533 31.4447C98.8475 31.4447 98.4717 31.5203 98.126 31.6868C97.7803 31.8533 97.4797 32.0652 97.2242 32.3376C96.9687 32.61 96.7733 32.9278 96.623 33.2759C96.4727 33.6392 96.4126 34.0175 96.4126 34.411C96.4126 35.2434 96.6831 35.9245 97.2092 36.4391C97.7352 36.9234 98.3966 37.1958 99.1782 37.1958Z" fill="#131313"/>
<path d="M110.675 37.3144C110.99 37.3295 111.306 37.2841 111.607 37.1782C111.907 37.0723 112.208 36.9512 112.493 36.7847C112.614 36.7242 112.719 36.6636 112.824 36.588C112.929 36.5123 113.02 36.482 113.11 36.482C113.245 36.482 113.35 36.5425 113.44 36.6788L114.237 37.9652C114.312 38.0863 114.342 38.1771 114.342 38.2527C114.342 38.3738 114.312 38.4646 114.237 38.5403C114.162 38.616 114.087 38.6916 113.997 38.7673C113.531 39.1154 113.035 39.3878 112.493 39.5997C111.952 39.7965 111.366 39.9024 110.75 39.9024C109.998 39.9024 109.292 39.7511 108.616 39.4635C107.939 39.1759 107.353 38.7824 106.857 38.2679C106.361 37.7533 105.955 37.1782 105.67 36.482C105.369 35.801 105.219 35.0745 105.219 34.3026C105.219 33.5459 105.369 32.8346 105.655 32.1535C105.94 31.4725 106.331 30.8822 106.827 30.3677C107.323 29.8531 107.894 29.4445 108.54 29.1418C109.187 28.8391 109.878 28.6877 110.615 28.6877C111.306 28.6877 111.967 28.824 112.584 29.0812C113.2 29.3385 113.756 29.7018 114.222 30.1558C114.688 30.6098 115.064 31.1395 115.334 31.7449C115.605 32.3503 115.74 32.9859 115.74 33.6821C115.74 34.2572 115.695 34.6659 115.605 34.9232C115.515 35.1804 115.304 35.3015 114.989 35.3015H108.24C108.27 35.6193 108.36 35.9069 108.525 36.1491C108.691 36.3912 108.886 36.6031 109.112 36.7847C109.337 36.9663 109.608 37.0874 109.878 37.1782C110.134 37.269 110.404 37.3144 110.675 37.3144ZM108.225 33.1827H112.884C112.854 32.6378 112.614 32.1687 112.178 31.7752C111.742 31.3968 111.186 31.2001 110.54 31.2001C110.284 31.2001 110.013 31.2455 109.758 31.3514C109.502 31.4574 109.262 31.5936 109.036 31.7752C108.826 31.9568 108.646 32.1687 108.495 32.4108C108.36 32.653 108.27 32.9103 108.225 33.1827Z" fill="#131313"/>
<path d="M118.851 39.1168V23.9975C118.851 23.6343 119.016 23.4526 119.347 23.4526H121.255C121.616 23.4526 121.797 23.6343 121.797 23.9975V30.1118C122.097 29.7183 122.473 29.4005 122.909 29.1583C123.345 28.9162 123.901 28.7951 124.547 28.7951C125.284 28.7951 125.96 28.9465 126.591 29.234C127.208 29.5216 127.749 29.9151 128.185 30.4296C128.62 30.9291 128.966 31.5193 129.222 32.1852C129.477 32.8512 129.597 33.5776 129.597 34.3495C129.597 35.1062 129.462 35.8175 129.207 36.4986C128.951 37.1796 128.59 37.7547 128.139 38.2542C127.689 38.7536 127.162 39.1471 126.546 39.4347C125.93 39.7222 125.269 39.8736 124.547 39.8736C123.856 39.8736 123.27 39.7525 122.819 39.5103C122.353 39.2682 121.947 38.8898 121.586 38.3601C121.556 38.5266 121.526 38.6628 121.496 38.7839C121.466 38.905 121.436 39.0412 121.406 39.1622C121.331 39.4195 121.18 39.5709 120.925 39.6011C120.684 39.6314 120.429 39.6466 120.188 39.6466H119.362C119.016 39.6314 118.851 39.4498 118.851 39.1168ZM121.511 34.3949C121.511 34.7884 121.586 35.1516 121.721 35.5148C121.857 35.8629 122.052 36.1656 122.293 36.4229C122.533 36.6802 122.804 36.8769 123.134 37.0283C123.45 37.1796 123.781 37.2553 124.126 37.2553C124.487 37.2553 124.818 37.1796 125.133 37.0283C125.449 36.8769 125.72 36.6651 125.945 36.4078C126.17 36.1505 126.366 35.8327 126.501 35.4846C126.636 35.1365 126.712 34.7581 126.712 34.3646C126.712 33.9711 126.651 33.5928 126.516 33.2447C126.381 32.8814 126.216 32.5787 125.99 32.3215C125.765 32.0642 125.494 31.8523 125.193 31.7009C124.878 31.5496 124.547 31.4739 124.201 31.4739C123.841 31.4739 123.495 31.5496 123.179 31.7009C122.864 31.8523 122.578 32.0642 122.338 32.3215C122.097 32.5787 121.902 32.8966 121.751 33.2447C121.601 33.6079 121.541 33.9711 121.541 34.3646V34.3949H121.511Z" fill="#131313"/>
<path d="M139.475 39.0712C139.445 38.9199 139.43 38.814 139.415 38.708C139.4 38.6172 139.385 38.4961 139.355 38.3448C139.22 38.5264 139.085 38.7232 138.919 38.9199C138.754 39.1166 138.574 39.268 138.348 39.4042C138.138 39.5404 137.882 39.6615 137.597 39.7372C137.311 39.8128 136.965 39.8734 136.56 39.8734H136.514C135.748 39.8734 135.041 39.7372 134.395 39.4496C133.749 39.1621 133.193 38.7686 132.742 38.2691C132.276 37.7697 131.915 37.1794 131.66 36.5135C131.404 35.8476 131.269 35.1211 131.269 34.3341C131.269 33.5472 131.389 32.8207 131.645 32.1396C131.9 31.4586 132.261 30.8835 132.712 30.384C133.178 29.8846 133.734 29.5062 134.365 29.2187C135.011 28.9311 135.718 28.7949 136.499 28.7949C137.266 28.7949 137.867 28.9463 138.288 29.249C138.709 29.5516 139.1 29.9149 139.43 30.3386L139.641 29.5062C139.701 29.2641 139.761 29.0976 139.836 29.0219C139.911 28.9463 140.047 28.9009 140.242 28.9009L141.459 28.9463C141.625 28.9463 141.76 29.0068 141.895 29.1127C142.031 29.2187 142.091 29.37 142.091 29.5365V39.1167C142.091 39.2983 142.031 39.4193 141.895 39.5253C141.76 39.6161 141.625 39.6615 141.459 39.6615H140.077C139.866 39.6615 139.716 39.601 139.626 39.495C139.566 39.3891 139.505 39.2377 139.475 39.0712ZM134.079 34.3493C134.079 34.7579 134.14 35.1363 134.26 35.4844C134.38 35.8325 134.56 36.1352 134.786 36.4076C135.011 36.6649 135.297 36.8767 135.613 37.013C135.928 37.1643 136.289 37.2248 136.68 37.2248C137.491 37.2248 138.123 36.9524 138.604 36.4076C139.085 35.8627 139.31 35.1817 139.31 34.3644C139.31 33.9709 139.25 33.5926 139.13 33.2445C139.009 32.8812 138.844 32.5785 138.604 32.3061C138.378 32.0337 138.093 31.8218 137.777 31.6705C137.461 31.5191 137.086 31.4435 136.665 31.4435C136.274 31.4435 135.913 31.5191 135.598 31.6705C135.267 31.8218 134.996 32.0337 134.771 32.3061C134.545 32.5785 134.38 32.8812 134.245 33.2293C134.14 33.5774 134.079 33.9558 134.079 34.3493Z" fill="#131313"/>
<path d="M154.775 31.762C154.504 31.1566 154.144 30.6269 153.663 30.1729C153.197 29.7188 152.641 29.3708 152.024 29.0983C151.408 28.841 150.747 28.7048 150.055 28.7048C149.319 28.7048 148.627 28.8562 147.981 29.1589C147.335 29.4616 146.764 29.8702 146.268 30.3848C145.772 30.8993 145.381 31.5047 145.095 32.1706C144.81 32.8365 144.659 33.563 144.659 34.3197C144.659 35.0916 144.81 35.818 145.11 36.4991C145.411 37.1802 145.802 37.7704 146.298 38.285C146.794 38.7995 147.38 39.1779 148.056 39.4806C148.733 39.7833 149.439 39.9195 150.191 39.9195C150.807 39.9195 151.393 39.8136 151.934 39.6168C152.475 39.4201 152.971 39.1325 153.437 38.7844C153.527 38.7087 153.603 38.6331 153.678 38.5574C153.753 38.4817 153.783 38.3758 153.783 38.2698C153.783 38.1942 153.753 38.1034 153.678 37.9823L152.881 36.6958C152.791 36.5596 152.686 36.4991 152.55 36.4991C152.46 36.4991 152.37 36.5294 152.265 36.605C152.16 36.6807 152.054 36.7413 151.934 36.8018C151.649 36.9683 151.348 37.0893 151.047 37.1953C150.747 37.3012 150.431 37.3466 150.115 37.3315C149.86 37.3315 149.589 37.2861 149.304 37.1953C149.018 37.1045 148.763 36.9834 148.537 36.8018C148.312 36.6202 148.116 36.4234 147.951 36.1661C147.786 35.924 147.696 35.6364 147.666 35.3186H154.414C154.73 35.3186 154.94 35.1975 155.03 34.9402C155.121 34.683 155.166 34.2743 155.166 33.6992C155.181 33.003 155.045 32.3674 154.775 31.762ZM147.666 33.1846C147.711 32.9122 147.801 32.6549 147.951 32.4128C148.101 32.1706 148.282 31.9588 148.492 31.7771C148.703 31.5955 148.943 31.4593 149.214 31.3534C149.469 31.2474 149.74 31.202 149.995 31.202C150.642 31.202 151.198 31.3988 151.634 31.7771C152.069 32.1706 152.31 32.6398 152.34 33.1846H147.666Z" fill="#131313"/>
<path d="M152.58 24.0883L151.588 26.3736C151.467 26.6763 151.287 26.8276 151.017 26.8276H149.453C149.303 26.8276 149.213 26.8125 149.168 26.7671C149.123 26.7217 149.108 26.646 149.108 26.5552C149.108 26.4947 149.123 26.4341 149.138 26.3736C149.153 26.3131 149.183 26.2374 149.213 26.1314L150.16 23.9067C150.325 23.604 150.521 23.4526 150.746 23.4526H152.369C152.565 23.4526 152.67 23.5283 152.67 23.6645C152.685 23.7856 152.64 23.9218 152.58 24.0883Z" fill="url(#paint0_linear_526_430)"/>
<path d="M24.204 15.5855C22.0245 15.2979 19.8602 15.5098 17.831 16.1303L19.3641 4.1892L17.1246 3.90165C13.1115 3.37194 9.11336 4.46162 5.91186 6.95881C2.71037 9.456 0.651195 13.058 0.125128 17.1141C-0.942037 25.4683 4.93488 33.1566 13.2467 34.2312C13.9081 34.322 14.5694 34.3523 15.2157 34.3523C16.7188 34.3523 18.2068 34.1101 19.6197 33.6712L18.0866 45.6123L20.3261 45.8999C20.9874 45.9907 21.6488 46.0209 22.2951 46.0209C25.6319 46.0209 28.8634 44.9161 31.5388 42.8276C34.7554 40.3304 36.7995 36.7284 37.3256 32.6723C38.3927 24.3332 32.5008 16.66 24.204 15.5855ZM4.58918 17.6892C4.94991 14.8439 6.39284 12.3013 8.66244 10.5457C10.3158 9.25926 12.2547 8.51767 14.2838 8.33605L12.9612 18.6578C10.3459 20.7009 8.51214 23.4857 7.6554 26.6488C5.3858 24.3786 4.1533 21.1247 4.58918 17.6892ZM13.8179 29.7211C13.0814 29.6303 12.375 29.4638 11.6986 29.2217C12.0894 26.4369 13.5173 23.9549 15.7418 22.2295C17.9964 20.4739 20.792 19.7172 23.6328 20.0804C24.3693 20.1712 25.0757 20.3377 25.7521 20.5799C25.3613 23.3646 23.9334 25.8467 21.7089 27.572C19.4393 29.3276 16.6436 30.0995 13.8179 29.7211ZM32.8465 32.1123C32.4858 34.9576 31.0428 37.5002 28.7732 39.2558C27.1199 40.5423 25.1809 41.2838 23.1518 41.4655L24.4745 31.1437C27.0898 29.1006 28.9235 26.3158 29.7803 23.1527C32.0499 25.4229 33.2824 28.6919 32.8465 32.1123Z" fill="url(#paint1_linear_526_430)"/>
<path d="M7.79567 48.9999C7.49506 48.9999 7.19446 48.9847 6.89385 48.9393C3.09113 48.4399 0.385644 44.9287 0.88165 41.0997C1.37766 37.2706 4.86473 34.5464 8.66744 35.0459C12.4702 35.5453 15.1756 39.0565 14.6796 42.8855C14.4392 44.7471 13.5073 46.3967 12.0343 47.5318C10.8018 48.5004 9.32879 48.9999 7.79567 48.9999ZM7.78064 39.5257C6.56317 39.5257 5.51104 40.4337 5.34571 41.6748C5.18037 43.0217 6.12729 44.2628 7.465 44.4293C8.11132 44.5201 8.75763 44.3385 9.26867 43.9298C9.7797 43.5212 10.1254 42.9461 10.2006 42.2953C10.3659 40.9483 9.41897 39.7073 8.08126 39.5408C7.99107 39.5257 7.88586 39.5257 7.78064 39.5257Z" fill="#BC56FC"/>
<path d="M29.7688 14.0085C29.4682 14.0085 29.1676 13.9934 28.867 13.948C25.0643 13.4486 22.3588 9.93735 22.8548 6.10832C23.0953 4.24678 24.0272 2.59712 25.5002 1.46203C26.9731 0.311812 28.7918 -0.172492 30.6406 0.0545252C34.4433 0.553964 37.1488 4.06517 36.6528 7.89419C36.2169 11.4205 33.2108 14.0085 29.7688 14.0085ZM29.7538 4.53434C29.2127 4.53434 28.7017 4.71595 28.2658 5.04891C27.7547 5.45754 27.409 6.03265 27.3339 6.68343C27.1685 8.0304 28.1155 9.27143 29.4532 9.43791C30.7759 9.61953 32.0234 8.65092 32.2038 7.30395C32.3691 5.95698 31.4222 4.71595 30.0845 4.54947C29.9642 4.53434 29.859 4.53434 29.7538 4.53434Z" fill="#BC53FF"/>
<defs>
<linearGradient id="paint0_linear_526_430" x1="149.102" y1="25.1439" x2="152.681" y2="25.1439" gradientUnits="userSpaceOnUse">
<stop stop-color="#F1A0AD"/>
<stop offset="0.1538" stop-color="#E087C7"/>
<stop offset="0.3418" stop-color="#D070E0"/>
<stop offset="0.5394" stop-color="#C560F1"/>
<stop offset="0.7508" stop-color="#BE56FC"/>
<stop offset="1" stop-color="#BC53FF"/>
</linearGradient>
<linearGradient id="paint1_linear_526_430" x1="11.0188" y1="14.0875" x2="33.0408" y2="44.5972" gradientUnits="userSpaceOnUse">
<stop stop-color="#F1A0AD"/>
<stop offset="0.1538" stop-color="#E087C7"/>
<stop offset="0.3418" stop-color="#D070E0"/>
<stop offset="0.5394" stop-color="#C560F1"/>
<stop offset="0.7508" stop-color="#BE56FC"/>
<stop offset="1" stop-color="#BC53FF"/>
</linearGradient>
</defs>
</svg>
