<svg width="24" height="25" viewBox="0 0 24 25" fill="none" xmlns="http://www.w3.org/2000/svg">
<g clip-path="url(#clip0_1545_179)">
<path d="M3 12.5C3 13.6819 3.23279 14.8522 3.68508 15.9442C4.13738 17.0361 4.80031 18.0282 5.63604 18.864C6.47177 19.6997 7.46392 20.3626 8.55585 20.8149C9.64778 21.2672 10.8181 21.5 12 21.5C13.1819 21.5 14.3522 21.2672 15.4442 20.8149C16.5361 20.3626 17.5282 19.6997 18.364 18.864C19.1997 18.0282 19.8626 17.0361 20.3149 15.9442C20.7672 14.8522 21 13.6819 21 12.5C21 11.3181 20.7672 10.1478 20.3149 9.05585C19.8626 7.96392 19.1997 6.97177 18.364 6.13604C17.5282 5.30031 16.5361 4.63738 15.4442 4.18508C14.3522 3.73279 13.1819 3.5 12 3.5C10.8181 3.5 9.64778 3.73279 8.55585 4.18508C7.46392 4.63738 6.47177 5.30031 5.63604 6.13604C4.80031 6.97177 4.13738 7.96392 3.68508 9.05585C3.23279 10.1478 3 11.3181 3 12.5Z" stroke="white" stroke-width="2" stroke-linecap="round" stroke-linejoin="round"/>
<path d="M14.8 9.50016C14.6188 9.18592 14.3557 8.92686 14.0386 8.75071C13.7215 8.57456 13.3625 8.48795 13 8.50016H11C10.4696 8.50016 9.96086 8.71087 9.58579 9.08594C9.21071 9.46102 9 9.96972 9 10.5002C9 11.0306 9.21071 11.5393 9.58579 11.9144C9.96086 12.2894 10.4696 12.5002 11 12.5002H13C13.5304 12.5002 14.0391 12.7109 14.4142 13.0859C14.7893 13.461 15 13.9697 15 14.5002C15 15.0306 14.7893 15.5393 14.4142 15.9144C14.0391 16.2894 13.5304 16.5002 13 16.5002H11C10.6375 16.5124 10.2785 16.4258 9.96142 16.2496C9.64435 16.0735 9.38115 15.8144 9.2 15.5002" stroke="white" stroke-width="2" stroke-linecap="round" stroke-linejoin="round"/>
<path d="M12 7.5V17.5" stroke="white" stroke-width="2" stroke-linecap="round" stroke-linejoin="round"/>
</g>
<defs>
<clipPath id="clip0_1545_179">
<rect width="24" height="24" fill="white" transform="translate(0 0.5)"/>
</clipPath>
</defs>
</svg>
