<svg width="40" height="40" viewBox="0 0 40 40" fill="none" xmlns="http://www.w3.org/2000/svg">
<path d="M11 14C11.4022 14 11.634 13.8854 12 14C13.3877 12.445 15.3348 11.2534 17 10C16.8289 9.284 16.7658 8.69797 17 8.00003C15.1217 6.65385 13.1436 5.86323 11 5.00003C8.97953 6.24975 7.40896 8.08713 6.00001 10C7.04359 11.85 7.58845 13.4316 9.00001 15C9.51476 14.7507 10.3867 14 11 14ZM7.00001 18C7.00001 17.447 6.79692 17.4746 7.00001 17C5.7344 15.609 5.00215 13.5914 4.00001 12C2.70205 14.5766 1.99764 18.115 2.00001 21C1.99654 24.3312 3.29252 27.1398 5.00001 30C5.58403 26.7291 6.42609 23.9262 8.00001 21C7.47913 20.3172 6.99952 18.8589 7.00001 18ZM21 5.00003C22.0396 5.00003 22.2942 5.34046 23 6.00003C25.0765 5.10365 27.7794 4.4296 30 4.00003C27.1959 2.3813 23.2378 1.99625 20 2.00003C17.7775 1.99864 16.0799 2.21683 14 3.00003C15.6014 3.791 17.5545 4.951 19 6.00003C19.5872 5.65014 20.2681 5.00003 21 5.00003ZM26 24C26.242 23.4916 26.5677 23.3607 27 23C25.8487 19.4642 24.397 15.8428 22 13C21.3798 13.2625 20.6693 13.0743 20 13C19.3307 12.9257 18.5475 13.3921 18 13C16.5739 14.0833 15.201 14.6715 14 16C14.3024 16.4788 14.9281 17.4383 15 18C15.0719 18.5617 15.172 18.4605 15 19C18.5194 21.3544 21.8121 23.3751 26 24ZM32 29C32.1469 31.0662 31.2553 32.9444 31 35C34.176 32.6831 36.8029 29.7447 38 26C36.5577 26.3495 35.4775 26.8609 34 27C33.8273 27.5315 33.3762 27.5867 33 28C32.6238 28.4133 32.5129 28.7782 32 29ZM26 27C21.5263 26.2548 16.7535 24.5458 13 22C12.145 22.5258 10.9825 22.2056 10 22C8.19337 25.4205 7.31477 29.1445 7.00001 33C8.77265 34.9064 10.6037 36.9833 13 38C16.0376 33.3261 21.0217 29.5075 26 27ZM33 7.00003C30.097 7.28397 26.6852 7.86052 24 9.00003C24.0735 9.72986 24.3245 10.3422 24 11C26.6637 14.124 28.7216 18.0987 30 22C30.762 22.0138 31.3684 21.5736 32 22C32.6316 22.4265 33.7024 23.2984 34 24C35.7815 23.819 37.3311 23.4907 39 23C39.4268 20.0078 39.0283 16.8422 38 14C36.9717 11.1579 35.2425 9.02633 33 7.00003ZM28 29C23.3627 31.1715 18.8974 33.7779 16 38C17.469 38.3678 18.4857 39.0005 20 39C22.697 39.0024 25.5558 38.1401 28 37C28.3821 35.1339 29 33.9747 29 32C29 31.2862 29.0543 29.6998 29 29C28.5304 28.8509 28.3805 29.3132 28 29Z" fill="white"/>
</svg>
