<svg width="642" height="328" viewBox="0 0 642 328" fill="none" xmlns="http://www.w3.org/2000/svg">
<path d="M283.807 107.542L281.042 111.226L279.2 113.069L275.516 115.095L274.963 116.753C274.963 116.753 273.489 118.227 273.674 119.149C273.859 120.071 273.859 121.728 273.859 121.728C273.859 121.728 271.279 124.123 270.173 124.86C269.068 125.597 267.593 127.255 267.593 127.255C267.593 127.255 266.672 128.361 266.12 128.729C265.567 129.097 264.647 130.203 263.909 131.309C263.172 132.414 262.435 133.15 262.066 133.703C261.698 134.255 260.592 135.545 260.04 137.572C259.487 139.6 258.013 141.994 258.013 141.994L257.644 142.915C257.829 146.047 257.828 146.6 258.197 147.706C258.565 148.811 258.935 148.442 258.566 150.838C258.197 153.232 258.197 154.154 257.829 155.259C257.46 156.364 256.355 158.39 255.987 159.313C255.618 160.234 256.724 161.891 256.724 161.891C256.724 161.891 257.277 164.287 256.908 164.84C256.54 165.393 257.092 166.498 257.092 166.498C257.092 166.498 259.303 167.787 260.041 168.525C260.777 169.262 262.067 170.368 262.251 170.92C262.436 171.473 263.91 174.053 264.094 174.605C264.278 175.158 265.752 177.184 266.121 177.737C266.489 178.29 268.332 180.317 268.332 180.317C268.332 180.317 270.727 182.158 271.28 182.896C271.833 183.632 273.491 184.001 274.043 184.553C274.596 185.106 275.885 184.921 276.622 185.475C277.36 186.027 278.833 185.106 279.57 185.475C280.307 185.843 282.335 185.106 282.887 184.738C283.44 184.37 284.729 183.081 285.651 183.632C286.572 184.184 287.124 183.632 287.862 183.816C288.598 184.001 289.703 183.081 290.44 183.081C291.178 183.081 293.019 182.343 293.572 182.343C294.125 182.343 295.968 181.236 296.705 181.236C297.441 181.236 298.363 180.501 299.284 180.869C300.205 181.236 299.836 180.133 301.495 180.685C303.153 181.236 303.706 180.685 304.258 181.236C304.811 181.79 305.549 181.238 306.102 181.975C306.654 182.711 307.575 183.263 307.759 184.001C307.942 184.738 309.048 185.476 309.048 185.476L310.154 185.659C310.154 185.659 311.629 184.554 311.997 185.291C312.365 186.028 314.024 185.845 314.024 185.845L315.681 187.687L316.234 188.423C316.234 188.423 317.34 191.372 317.155 192.477C316.971 193.582 316.971 195.977 316.419 196.529C315.866 197.083 315.498 199.478 315.498 199.478C315.498 199.478 314.76 200.215 316.419 201.689C318.077 203.164 319.183 204.452 319.735 205.188C320.289 205.926 321.763 207.953 321.945 209.242C322.13 210.532 322.499 211.268 323.236 212.927C323.973 214.585 324.894 214.769 325.078 216.613C325.263 218.454 325.631 218.455 325.446 219.744C325.262 221.034 324.71 221.218 325.262 222.139C325.815 223.06 326.551 224.719 326.368 225.271C326.184 225.824 325.815 228.219 325.815 228.219L325.446 229.325L323.789 232.458L322.683 234.115C322.315 235.404 321.578 236.694 321.762 238.537C321.945 240.379 320.841 240.379 322.315 242.22C323.789 244.064 324.525 246.091 325.446 247.749C326.368 249.407 326.921 251.065 327.104 252.17C327.289 253.276 328.026 253.645 328.394 255.118C328.762 256.593 328.947 257.329 328.947 258.25C328.947 259.171 328.762 261.567 329.132 262.12C329.499 262.672 329.684 264.331 329.868 265.068C330.052 265.805 329.315 265.99 330.421 267.28C331.527 268.569 332.263 269.306 333 270.227C333.737 271.149 333.553 270.78 334.106 272.07C334.659 273.359 335.395 274.097 335.58 275.202C335.764 276.307 335.948 279.07 336.501 280.36C337.054 281.65 337.79 282.94 337.79 282.94C337.79 282.94 339.818 284.23 340.555 284.045C341.29 283.861 342.765 282.204 343.871 282.756C344.977 283.309 345.898 282.756 346.819 282.756C347.74 282.756 348.662 281.65 349.583 281.65C350.504 281.65 351.793 280.176 352.532 280.545C353.268 280.913 354.188 280.175 355.11 279.254C356.032 278.334 356.584 277.598 358.242 276.123C359.9 274.649 359.716 274.648 360.821 273.727C361.927 272.806 363.033 270.779 364.322 270.411C365.611 270.042 365.98 268.754 366.348 267.832C366.717 266.911 366.901 266.358 367.454 265.62C368.007 264.885 367.638 265.807 368.56 263.41C369.482 261.014 370.588 260.094 371.509 259.541C372.43 258.989 372.982 257.884 373.535 257.699C374.088 257.514 375.009 258.251 374.641 256.593C374.273 254.935 374.641 252.54 374.273 251.987C373.904 251.433 373.351 253.276 373.536 250.512C373.722 247.749 375.747 244.985 375.747 244.985C375.747 244.985 378.51 241.485 379.432 240.932C380.354 240.38 380.537 239.827 381.828 239.089C383.116 238.354 385.88 236.511 385.88 235.589C385.88 234.668 386.986 232.273 386.986 231.719C386.986 231.167 386.986 230.614 386.619 227.482C386.25 224.351 386.986 225.086 385.881 222.139C384.776 219.191 384.59 215.506 383.855 214.585C383.117 213.663 383.485 211.268 383.485 210.532C383.485 209.795 384.776 207.952 385.329 207.216C385.881 206.478 388.276 203.53 388.276 203.53C388.276 203.53 391.961 199.293 393.251 197.267C394.541 195.239 395.83 193.398 396.751 192.661C397.673 191.924 399.883 190.264 401.173 188.422C402.463 186.581 405.042 183.081 405.227 182.526C405.41 181.975 406.884 180.132 406.884 180.132C406.884 180.132 408.911 177.736 409.28 176.447C409.647 175.157 411.489 167.972 411.121 168.34C410.754 168.709 408.542 169.077 407.805 169.261C407.069 169.446 408.911 170.182 403.567 169.814C398.225 169.445 395.462 170.367 395.462 170.367C393.802 169.998 392.513 171.84 391.96 169.261C391.407 166.682 391.038 165.208 389.934 163.366C388.828 161.523 388.091 160.786 386.434 158.39C384.776 155.996 384.959 157.1 383.485 155.259C382.011 153.417 381.642 153.969 380.721 151.574C379.8 149.179 379.064 150.101 377.958 146.784C376.852 143.467 376.115 143.098 375.563 141.256C375.009 139.415 374.273 138.861 373.904 137.203C373.536 135.545 369.299 127.07 368.746 126.517C368.192 125.965 367.271 123.016 367.456 123.569C367.641 124.122 370.22 125.964 370.22 125.964C370.22 125.964 371.693 125.411 372.247 125.411C372.799 125.411 375.01 127.438 375.01 128.174C375.01 128.912 378.881 132.413 379.801 134.992C380.722 137.571 381.829 139.414 382.012 140.151C382.195 140.887 384.039 143.836 384.776 144.942C385.512 146.047 387.907 148.258 388.276 149.363C388.644 150.469 392.146 154.154 392.146 156.549C392.146 158.944 393.802 162.076 393.987 162.812C394.172 163.549 397.488 164.471 397.488 164.471L401.91 163.366C401.91 163.366 408.542 159.127 409.28 159.127C410.016 159.127 415.913 156.364 415.913 156.364C415.913 156.364 418.308 154.154 419.965 152.864C421.624 151.574 423.466 149.18 423.835 148.073C424.203 146.967 424.94 146.784 426.414 145.125C427.888 143.467 429.915 141.809 428.625 140.703C427.335 139.598 426.598 139.966 424.756 138.124C422.914 136.282 423.098 136.65 421.808 134.254C420.518 131.86 421.992 129.096 419.228 131.86C416.465 134.624 417.57 135.36 414.806 135.915C412.043 136.466 410.936 138.309 409.647 136.466C408.358 134.624 407.069 135.73 406.33 132.965C405.594 130.202 405.04 130.017 404.857 128.913C404.674 127.807 404.857 127.807 403.383 125.042C401.909 122.279 403.014 118.041 403.935 120.436C404.857 122.832 406.33 123.2 408.726 124.858C411.121 126.516 412.227 127.807 414.437 127.991C416.648 128.174 418.491 127.991 418.859 128.358C419.228 128.728 419.596 128.175 420.518 128.543C421.439 128.912 421.806 127.991 422.175 129.463C422.544 130.938 424.57 131.122 425.491 132.043C426.413 132.964 426.413 132.596 428.809 132.964C431.205 133.333 434.522 133.333 434.522 133.333L438.021 133.148L442.074 133.515C442.074 133.515 445.024 135.174 445.76 135.174C446.496 135.174 446.68 137.201 448.523 138.306C450.366 139.412 450.734 139.596 451.839 140.886C452.946 142.176 452.761 142.728 454.234 144.017C455.709 145.308 458.105 143.834 458.473 143.282C458.84 142.729 460.683 141.808 460.316 143.282C459.947 144.756 462.157 144.202 461.604 147.704C461.052 151.204 460.683 150.283 461.604 152.679C462.525 155.074 466.579 162.443 466.764 164.654C466.949 166.865 468.053 166.128 468.237 168.156C468.422 170.182 469.526 170.918 469.526 172.393C469.526 173.867 470.817 174.234 471.001 175.341C471.186 176.447 473.212 175.524 473.765 175.341C474.318 175.156 476.897 172.761 476.897 172.761C476.897 172.761 478.004 172.393 477.818 170.55C477.633 168.709 477.818 169.077 477.818 166.313C477.818 163.55 476.713 163.55 477.266 160.787C477.818 158.024 479.292 156.365 479.661 155.075C480.029 153.786 481.503 151.575 482.239 151.39C482.976 151.206 487.03 149.18 487.952 147.889C488.873 146.6 490.347 145.126 491.821 143.652C493.295 142.179 495.874 140.336 496.427 140.889C496.98 141.441 496.796 141.257 497.717 141.257C498.638 141.257 500.297 141.995 501.586 142.179C502.876 142.363 505.456 145.495 506.009 147.153C506.561 148.812 506.193 148.443 508.219 150.838C510.246 153.233 512.089 151.758 512.089 154.707C512.089 157.655 512.089 157.47 513.01 158.576C513.931 159.682 515.036 156.549 516.141 156.919C517.246 157.288 517.431 156.55 518.352 159.498C519.272 162.446 519.825 162.446 520.011 165.394C520.194 168.342 519.826 165.578 519.826 167.972C519.826 170.368 519.641 170.553 520.011 172.763C520.378 174.975 521.667 175.712 521.484 176.08C521.484 176.08 522.589 172.948 522.22 170.737C521.853 168.527 522.22 165.395 523.142 164.474C524.063 163.551 524.985 162.631 525.721 165.026C526.459 167.421 526.827 165.579 528.484 168.342C530.144 171.107 531.617 170.553 531.801 171.843C531.985 173.133 532.909 173.318 534.196 174.422C535.486 175.528 536.591 174.239 538.066 173.133C539.541 172.027 543.593 167.973 543.778 166.315C543.962 164.657 545.62 165.025 542.672 160.789C539.723 156.551 539.723 155.077 536.591 152.498C533.461 149.918 531.618 149.734 534.014 146.417C536.409 143.101 537.515 140.891 538.988 141.812C540.462 142.733 543.04 142.548 543.04 146.234C543.04 149.918 542.303 153.972 544.883 149.55C547.462 145.128 548.753 142.549 548.014 143.287C547.278 144.024 549.673 141.813 549.673 141.813C549.673 141.813 549.858 140.155 552.99 139.418C556.121 138.68 557.042 138.312 558.149 137.76C559.254 137.206 562.387 133.521 562.939 131.863C563.492 130.205 564.966 127.257 564.598 125.968C564.229 124.677 562.386 118.415 562.017 118.598C561.65 118.783 561.834 118.783 559.44 116.204C557.043 113.624 555.385 111.782 555.017 110.676C554.649 109.57 553.727 109.386 554.832 107.913C555.939 106.439 556.491 106.623 556.676 105.333C556.859 104.044 558.332 102.938 555.569 103.86C552.806 104.781 554.832 104.229 552.437 104.045C550.042 103.86 543.778 105.334 546.911 101.466C550.042 97.5963 550.962 95.202 551.515 95.202C552.07 95.202 554.833 92.0694 555.016 95.017C555.201 97.9646 556.306 97.2271 556.491 99.0697C556.676 100.912 560.36 97.0437 560.36 97.0437C560.36 97.0437 561.649 97.4121 562.57 98.333C563.492 99.2538 563.492 102.202 563.492 102.202C563.492 102.202 562.755 101.281 564.782 102.755C566.809 104.23 569.019 103.492 569.019 106.624C569.019 109.756 569.019 109.941 570.309 110.678C571.599 111.414 572.887 111.047 573.995 110.125C575.1 109.204 576.941 105.887 576.941 105.887C576.941 105.887 577.126 104.597 574.178 102.755C571.23 100.913 569.388 99.6238 568.283 98.7021C567.177 97.7813 567.546 95.0178 568.65 93.9111C569.758 92.8053 570.309 92.2527 569.94 90.7793C569.571 89.3043 570.494 88.1992 573.257 88.3834C576.02 88.5684 576.573 88.2001 576.573 88.2001C576.573 88.2001 577.127 88.5676 577.127 87.4625C577.127 86.3575 580.626 81.1981 579.705 81.1981C578.784 81.1981 579.891 79.9089 579.336 77.8822C578.784 75.8546 581.179 72.7236 579.153 71.2494C577.126 69.7752 576.573 69.0377 575.284 66.8275C573.995 64.6158 574.177 64.2483 569.388 63.6949C564.598 63.1424 562.387 64.8008 561.281 63.3274C560.175 61.8532 559.623 65.5375 558.886 61.1157C558.15 56.6938 559.992 53.7454 559.992 53.7454C559.992 53.7454 562.94 51.9036 563.676 50.6136C564.413 49.3235 567.36 48.771 569.758 49.6927C572.153 50.6136 575.652 50.4294 578.601 50.9836C581.549 51.5353 581.365 53.3778 582.839 50.9836C584.312 48.5868 582.839 47.4826 583.944 46.1926C585.051 44.9025 586.339 42.8758 587.26 44.165C588.181 45.4559 590.026 46.7443 591.5 45.0859C592.974 43.4283 593.526 43.2441 593.526 43.2441L594.261 43.9816C594.261 43.9816 595.92 43.0591 595.92 44.7167C595.92 46.3759 597.579 48.2185 596.657 49.5077C595.735 50.7986 594.447 50.6136 594.447 53.7454C594.447 56.8788 594.447 56.3255 596.472 58.9056C598.5 61.484 599.789 59.2731 600.157 62.0374C600.526 64.8008 600.893 64.2491 602.921 66.0908C604.948 67.9326 604.578 67.9326 606.053 69.0385C607.527 70.1443 608.265 71.2502 608.265 69.4076C608.265 67.5651 608.449 66.6442 608.265 64.9858C608.079 63.3282 609.739 62.0374 608.632 59.2739C607.527 56.5105 608.448 56.6946 606.237 54.6679C604.026 52.642 602.552 55.0371 601.816 52.0886C601.079 49.141 605.316 47.851 606.422 47.4826C607.528 47.1151 609.184 44.9033 609.553 46.3776C609.922 47.851 606.79 53.1945 612.134 47.4826C617.475 41.7715 615.081 44.1666 615.081 44.1666C615.081 44.1666 617.845 43.7983 618.397 44.1666C618.949 44.5358 620.426 42.5082 619.871 42.6932C619.318 42.8782 613.977 39.7448 613.977 39.7448L610.106 37.5347C610.106 37.5347 611.397 36.613 612.318 36.798C613.239 36.9822 613.424 34.9554 614.346 34.7704C615.267 34.5863 621.531 36.0613 622.821 36.798C624.111 37.5347 628.716 37.7189 628.163 37.3505C627.61 36.9813 624.663 34.7712 624.478 34.0337C624.295 33.297 617.845 31.8228 615.819 32.007C613.792 32.1903 611.951 32.7429 610.293 32.1903C608.633 31.6378 606.239 30.1636 604.949 30.1636C603.66 30.1636 587.447 27.0318 586.71 27.216C585.973 27.4001 584.867 30.9003 584.314 30.3478C583.762 29.7952 582.841 29.7944 580.26 29.0577C577.682 28.321 574.18 27.7677 569.574 27.4001C564.968 27.0318 561.837 27.7685 560.547 26.2943C559.257 24.8209 556.495 25.3734 553.362 25.1884C550.23 25.005 546.545 25.1884 544.887 25.1884C543.228 25.1884 539.361 25.005 538.439 24.8201C537.517 24.6351 536.412 23.3458 535.307 23.1625C534.2 22.9775 534.385 22.61 532.175 22.2416C529.964 21.8724 530.148 19.4782 529.411 21.5041C528.674 23.5316 529.042 22.9783 527.937 23.715C526.831 24.4525 525.726 25.9259 524.988 25.9259C524.253 25.9259 521.305 26.1101 520.751 25.7417C520.197 25.3734 519.276 25.005 517.434 25.005C515.591 25.005 515.591 25.1884 513.196 24.8201C510.801 24.4517 508.959 24.6351 506.748 23.5308C504.537 22.425 504.537 21.6883 502.694 21.8724C500.853 22.0574 500.853 21.5041 498.272 21.5041C495.694 21.5041 492.562 22.9783 490.903 23.1625C489.246 23.3467 485.561 22.9775 484.271 22.425C482.98 21.8724 482.613 20.5832 477.822 21.1349C473.031 21.6883 470.268 21.6883 471.189 20.214C472.11 18.7406 473.216 17.2664 473.768 17.0822C474.321 16.8981 475.61 15.9772 474.688 15.6088C473.768 15.2397 472.846 14.688 470.636 14.503C468.425 14.3188 468.608 15.2397 465.293 14.8713C461.977 14.503 467.135 13.5821 460.319 13.7663C453.502 13.9513 451.844 14.503 451.107 14.503C450.37 14.503 449.448 13.0296 447.606 15.2397C445.764 17.4506 443.183 18.7398 439.499 18.924C435.815 19.109 435.63 18.5556 432.131 19.8449C428.63 21.1341 426.418 19.4765 427.155 22.4241C427.891 25.3718 428.814 26.4776 428.814 27.0302C428.814 27.5827 427.155 31.2678 425.129 29.0569C423.101 26.846 419.417 18.1865 421.075 24.0825C422.733 29.9778 426.417 32.0053 422.918 32.9262C419.418 33.8471 419.784 32.5579 419.232 32.1887C418.68 31.8204 419.232 29.2411 419.048 27.7669C418.863 26.2935 418.495 25.3718 417.758 24.6351C417.022 23.8975 417.205 22.7925 415.732 22.4241C414.257 22.0558 415.547 21.3183 413.152 21.3183C410.757 21.3183 408.731 19.8441 409.284 23.1608C409.836 26.4768 410.388 24.2667 411.861 27.3985C413.335 30.5303 416.099 28.3194 414.073 30.5303C412.046 32.7412 406.704 32.0045 405.414 31.0836C404.124 30.162 404.493 31.452 402.096 29.7936C399.701 28.1352 400.439 26.8452 397.676 28.1352C394.912 29.4253 393.991 31.8204 392.885 30.8987C391.779 29.977 389.201 32.1879 388.279 31.0836C387.357 29.9778 383.672 29.9778 382.936 31.0836C382.199 32.1887 379.988 32.0045 376.856 33.4787C373.724 34.9521 374.644 33.6621 370.776 36.7947C366.906 39.9265 364.695 42.5058 363.406 40.479C362.116 38.4531 355.114 34.9521 357.878 34.3988C360.643 33.8463 361.932 32.7412 363.406 34.0305C364.88 35.3197 367.276 34.9521 367.643 34.0305C368.011 33.1088 369.671 32.1879 367.459 31.0828C365.248 29.977 365.064 30.7137 361.564 29.4244C358.063 28.1344 361.564 28.5036 356.773 27.766C351.982 27.0293 349.955 26.661 348.666 26.2926C347.377 25.9243 345.534 26.2926 343.692 26.1085C341.849 25.9243 340.56 25.5559 338.901 25.7401C337.243 25.9243 336.323 25.5559 334.111 27.2143C331.899 28.8727 330.241 29.6094 328.767 30.8987C327.294 32.1879 323.425 34.768 322.32 35.6897C321.214 36.6105 317.344 39.5582 316.976 40.664C316.608 41.7699 317.344 42.6908 315.87 43.4275C314.396 44.1642 312.923 44.1642 311.817 44.3484C310.711 44.5325 311.817 42.69 310.711 44.5325C309.606 46.3751 309.974 53.0079 310.895 52.0862C311.816 51.1645 311.263 48.2177 315.317 50.9819C319.37 53.7446 321.95 53.3762 321.765 55.9555C321.581 58.5348 324.529 58.3506 324.897 58.9039C325.266 59.4556 327.108 58.1664 327.108 58.1664C327.108 58.1664 331.162 55.5871 331.162 54.2979C331.162 53.0079 333.741 50.0602 333.741 50.0602C333.741 50.0602 331.898 49.1394 331.898 47.2968C331.898 45.455 332.452 44.9009 332.819 43.0583C333.188 41.2166 330.792 43.0591 336.32 39.5573C341.846 36.0572 342.215 38.4531 342.215 38.4531C342.215 38.4531 342.951 39.1898 342.03 40.2949C341.11 41.4007 339.451 44.3492 339.083 44.7167C338.714 45.0859 340.741 48.0335 341.661 48.0335C342.583 48.0335 344.426 47.296 345.531 47.4802C346.637 47.6651 348.479 46.9284 349.032 47.2968C349.585 47.6651 350.874 48.7702 349.952 49.6919C349.032 50.6128 347.004 51.7178 345.531 51.3503C344.056 50.9828 341.845 48.4018 343.135 52.087C344.426 55.7721 342.951 56.693 341.845 56.5088C340.741 56.3247 338.345 54.4829 338.714 57.2463C339.083 60.009 336.319 61.8515 335.766 61.8515C335.213 61.8515 334.108 61.6674 334.108 61.6674C334.108 61.6674 332.449 61.4824 331.529 61.4824C330.607 61.4824 328.765 62.4033 328.212 63.1408C327.659 63.8775 326.922 63.3258 326.001 63.3258C325.081 63.3258 326.001 62.2199 324.159 61.8515C322.317 61.4832 321.211 61.1148 320.106 61.8515C319 62.5882 317.343 62.9566 316.605 62.4041C315.869 61.8515 316.974 60.5607 315.499 61.299C314.026 62.0357 312.92 64.0625 312.368 64.2475C311.815 64.4308 314.026 64.2475 311.815 64.4308C309.604 64.6158 308.683 65.1692 307.577 65.5367C306.472 65.9059 307.946 68.116 305.919 68.8527C303.892 69.5894 305.367 67.9318 303.34 69.5894C301.313 71.2486 300.944 72.722 300.208 72.9062C299.47 73.0911 299.655 73.4587 297.997 73.6429C296.339 73.827 296.524 74.0112 295.601 74.1954C294.68 74.3795 295.786 74.7487 293.759 74.3795C291.732 74.0112 290.258 74.7487 290.627 75.4854C290.995 76.2221 297.812 78.2489 292.653 78.0647C287.495 77.8805 289.153 78.8014 290.258 79.5381C291.364 80.2748 291.916 81.0115 292.469 81.1965C293.023 81.3807 293.943 83.5924 293.943 83.5924C293.943 83.5924 295.417 83.4074 294.496 84.6975C293.575 85.9875 294.864 86.3559 293.943 88.0142C293.022 89.6726 293.022 88.5668 292.285 88.9351C291.548 89.3027 290.443 90.5935 288.415 89.4876C286.388 88.3818 284.916 87.8292 282.52 87.6459C280.125 87.4609 281.782 87.0934 280.125 88.3818C278.466 89.6726 278.098 91.146 278.283 92.8036C278.467 94.4612 278.651 96.6729 278.098 97.7788C277.545 98.8839 277.545 99.9897 277.913 101.648C278.282 103.306 279.388 104.044 279.388 104.044C279.388 104.044 281.967 104.412 282.52 104.597C283.072 104.781 284.178 104.228 285.652 105.148C287.126 106.07 288.6 106.439 289.521 105.333C290.442 104.228 294.127 102.938 295.234 101.833C296.339 100.727 297.075 100.36 296.523 99.2538C295.97 98.148 297.629 95.3845 298.55 94.832C299.47 94.2795 301.497 93.7261 301.497 93.7261L303.708 90.4102C303.708 90.4102 305.551 88.3826 306.472 88.5676C307.392 88.7518 312.551 90.5952 312.183 88.2001C311.815 85.8041 312.552 85.0674 313.104 85.9883C313.657 86.9092 315.131 86.5408 315.131 86.5408C315.131 86.5408 315.868 86.1733 316.42 86.7258C316.973 87.2775 317.709 89.6743 318.815 90.226C319.921 90.7793 320.842 91.3319 321.58 91.6994C322.316 92.0686 323.054 91.6994 324.528 92.9894C326.001 94.2795 327.476 95.017 327.659 95.5687C327.845 96.1212 329.134 97.4113 329.134 97.4113C329.134 97.4113 330.423 97.7796 330.055 98.5171C329.687 99.2538 327.845 101.466 326.923 101.833C326.001 102.201 323.607 101.464 324.528 102.201C325.448 102.938 326.739 103.86 327.291 103.307C327.845 102.754 331.344 99.0688 331.344 99.0688C331.344 99.0688 331.16 99.253 331.344 98.1471C331.529 97.0429 331.344 95.7529 332.266 96.3054C333.187 96.8587 333.74 97.5954 334.108 96.8587C334.477 96.1212 334.845 96.4904 333.923 95.9379C333.002 95.3845 330.792 92.2527 329.686 92.0686C328.58 91.8836 325.816 90.041 325.816 90.041C325.816 90.041 325.264 89.4885 323.974 88.0151C322.684 86.5408 322.316 86.9092 321.946 85.6191C321.579 84.3299 320.472 82.6715 322.5 83.0399C324.527 83.4082 325.816 84.6974 327.658 85.8033C329.501 86.9092 329.133 87.2767 330.791 88.3826C332.448 89.4885 332.634 90.5943 333.923 90.4102C335.212 90.226 336.687 91.1469 336.687 92.8053C336.687 94.4636 337.054 96.3054 337.423 96.6746C337.792 97.0437 338.896 97.7804 339.265 98.5171C339.634 99.2538 340.371 101.096 340.923 101.833C341.476 102.57 342.029 103.123 342.581 104.045C343.134 104.966 343.318 103.86 343.871 104.229C344.424 104.597 345.161 104.412 345.161 103.676C345.161 102.939 345.344 101.649 345.344 101.649C345.344 101.649 347.925 100.912 347.188 100.543C346.451 100.175 344.239 97.9638 344.424 97.2271C344.608 96.4904 344.424 95.017 345.344 95.2012C346.266 95.3845 347.187 97.0429 349.214 95.5687C351.241 94.0945 353.636 93.3578 352.898 95.5687C352.163 97.7796 353.084 98.1472 352.898 100.543C352.715 102.939 353.637 102.201 354.927 103.492C356.216 104.782 357.137 104.967 358.058 105.334C358.979 105.703 360.453 105.519 361.928 105.703C363.402 105.887 364.323 105.15 365.613 105.519C366.901 105.887 369.85 105.334 370.403 105.703C370.957 106.072 373.167 104.967 373.351 106.256C373.535 107.546 374.273 106.072 373.72 109.019C373.167 111.967 372.43 113.994 372.43 113.994C370.403 117.863 369.666 118.785 368.745 118.969C367.825 119.153 367.271 119.705 365.614 119.521C363.955 119.336 361.929 119.521 359.534 118.969C357.139 118.415 352.716 119.521 350.874 118.415C349.032 117.31 346.452 118.231 345.346 116.942C344.241 115.652 342.399 115.836 341.661 115.099C340.925 114.363 340.556 112.337 340.556 115.284C340.556 118.233 338.898 118.416 338.529 119.89C338.16 121.364 339.081 120.627 337.054 120.443C335.028 120.258 334.475 121.364 331.528 119.154C328.579 116.943 327.106 116.943 325.632 116.021C324.157 115.099 322.684 117.679 321.21 114.732C319.736 111.783 317.709 114.179 317.525 111.783C317.341 109.388 317.525 109.573 317.709 108.099C317.895 106.625 319.92 105.336 319 104.783C318.078 104.231 318.815 103.309 317.525 103.862C316.235 104.415 314.394 104.599 312.919 105.152C311.445 105.705 316.235 105.152 309.05 105.705C301.865 106.257 299.837 106.994 299.837 106.994C299.837 106.994 299.285 106.626 298.363 107.362C297.442 108.099 296.152 109.205 294.863 108.653C293.574 108.099 292.836 108.283 291.731 108.468C290.625 108.652 289.889 107.547 288.599 108.468C287.309 109.388 285.836 109.758 285.282 109.388C284.709 109.012 283.784 107.538 283.784 107.538L283.807 107.542Z" fill="white"/>
<path d="M407.065 228.77C406.512 230.797 404.486 233.744 404.486 233.744L400.8 235.587C400.8 235.587 399.512 236.693 398.774 236.877C398.037 237.06 396.195 237.983 396.195 237.983C396.195 237.983 394.537 237.613 395.089 239.271C395.641 240.929 395.826 242.957 395.641 243.509C395.458 244.062 395.458 245.168 395.458 246.642C395.458 248.115 394.905 249.957 393.984 250.326C393.063 250.695 392.141 251.063 392.325 252.353C392.51 253.643 392.51 257.512 392.51 257.512L394.906 261.197C394.906 261.197 395.643 260.644 397.117 260.644C398.59 260.644 400.065 259.356 400.065 259.356C400.065 259.356 401.724 259.723 401.538 257.697C401.354 255.67 402.276 253.276 402.091 252.722C401.907 252.17 403.75 249.774 403.75 249.222C403.75 248.669 405.592 246.091 405.592 245.169C405.592 244.248 406.882 242.774 407.066 241.669C407.25 240.563 407.434 237.984 407.802 237.248C408.172 236.511 408.356 235.773 408.356 235.037C408.356 234.3 408.356 232.826 408.356 232.826L407.046 228.766L407.065 228.77Z" fill="white"/>
<path d="M551.341 253.648C550.789 254.384 550.42 262.308 550.052 263.229C549.683 264.15 548.946 268.941 549.316 270.045C549.683 271.151 550.236 275.204 549.868 276.494C549.499 277.783 550.053 281.837 549.13 281.653C548.21 281.468 547.843 281.838 547.843 282.389C547.843 282.943 549.13 284.047 549.13 284.047C549.13 284.047 551.343 284.048 552.264 283.863C553.184 283.679 555.027 282.757 556.501 282.757C557.975 282.757 558.897 281.651 560.186 281.651C561.476 281.651 564.24 280.731 564.977 281.099C565.713 281.466 566.818 278.888 568.108 279.441C569.398 279.994 572.163 278.151 573.452 278.151C574.74 278.151 575.294 276.123 576.769 276.493C578.242 276.862 581.006 275.757 582.296 276.308C583.584 276.862 585.612 274.466 586.533 276.308C587.455 278.151 590.219 278.888 590.219 279.809C590.219 280.729 590.033 282.757 590.033 282.757L592.244 282.572C592.244 282.572 595.744 280.361 596.298 280.361C596.85 280.361 598.14 278.519 598.14 279.441C598.14 280.361 597.034 282.389 596.666 283.309C596.298 284.231 597.034 285.337 597.034 285.337C597.034 285.337 598.878 286.258 598.14 287.916C597.403 289.574 598.324 289.206 598.14 290.495C597.955 291.785 598.14 291.231 598.875 291.968C599.614 292.706 600.905 293.997 602.009 293.812C603.116 293.627 603.482 292.522 604.404 293.075C605.325 293.627 607.167 293.259 607.719 293.997C608.274 294.732 604.22 296.575 611.221 293.444C618.222 290.311 618.957 289.574 619.879 288.468C620.803 287.363 621.908 286.258 622.643 285.52C623.381 284.784 622.829 284.968 625.038 283.309C627.249 281.652 627.249 282.389 629.277 279.256C631.304 276.125 632.777 275.019 633.147 274.466C633.515 273.912 634.252 273.729 634.436 271.517C634.62 269.306 636.094 267.28 636.094 266.543C636.094 265.807 636.646 264.702 636.462 263.411C636.278 262.121 637.199 260.28 636.094 258.438C634.988 256.594 636.646 255.859 634.988 255.12C633.329 254.383 632.224 254.753 631.856 253.462C631.487 252.172 630.012 252.357 629.46 248.856C628.907 245.356 626.697 244.986 626.697 244.986C626.697 244.986 624.486 244.065 625.038 243.698C625.592 243.329 625.776 240.749 625.592 240.012C625.407 239.275 625.407 237.617 624.856 236.513C624.303 235.406 623.934 233.933 623.381 232.643C622.829 231.353 621.908 230.984 621.539 229.511C621.17 228.037 620.617 227.483 620.434 227.116C620.248 226.747 619.879 224.906 619.512 226.931C619.144 228.957 618.405 232.826 618.405 232.826C618.405 232.826 616.931 235.959 616.379 236.88C615.826 237.8 615.274 240.196 614.353 240.011C613.431 239.827 612.877 240.934 612.142 240.748C611.404 240.563 610.299 240.933 609.747 240.38C609.194 239.827 607.72 238.354 606.982 238.169C606.246 237.985 605.693 236.512 605.14 236.512C604.586 236.512 603.666 235.221 603.851 234.484C604.034 233.748 604.218 232.09 604.403 231.352C604.587 230.616 605.693 228.957 605.693 228.957C605.693 228.957 605.693 227.852 604.772 227.852C603.851 227.852 603.666 227.852 601.639 227.667C599.613 227.482 599.061 227.298 598.322 227.298C597.587 227.298 599.06 226.93 597.033 227.482C595.007 228.036 594.085 229.51 592.795 230.8C591.508 232.089 592.612 231.72 591.508 232.089C590.4 232.458 590.586 231.167 589.848 233.195C589.111 235.222 590.218 235.773 589.663 236.143C589.11 236.512 585.242 234.853 585.242 234.853C585.242 234.853 586.163 234.668 585.426 233.748C584.69 232.826 583.952 231.537 582.848 232.09C581.741 232.643 580.819 233.012 580.084 233.933C579.346 234.853 579.346 235.59 578.794 236.327C578.241 237.064 576.768 237.064 576.583 237.801C576.399 238.539 576.399 240.38 575.847 240.564C575.294 240.749 575.11 239.829 574.558 239.644C574.005 239.46 574.189 237.986 573.821 238.908C573.453 239.829 573.084 239.644 572.532 241.118C571.978 242.592 571.794 243.882 571.242 244.066C570.689 244.251 571.242 244.435 569.583 245.356C567.926 246.277 567.557 246.277 565.162 247.383C562.768 248.489 563.321 248.489 561.662 248.672C560.005 248.857 559.635 249.41 558.53 249.594C557.423 249.778 556.688 249.962 555.581 251.067C554.476 252.173 553.555 252.541 552.819 252.726C552.082 252.911 551.378 253.634 551.378 253.634L551.341 253.648Z" fill="white"/>
<path d="M562.211 180.871C561.476 181.977 559.08 185.293 558.16 185.477C557.238 185.661 556.316 186.583 555.579 186.398C554.843 186.213 553.184 186.398 552.632 188.793C552.079 191.189 551.158 192.479 550.603 192.294C550.051 192.109 551.524 195.794 548.393 194.321C545.262 192.847 546.367 195.611 545.998 196.349C545.63 197.085 546.551 199.112 546.735 199.849C546.921 200.586 547.472 201.876 548.209 202.98C548.946 204.086 549.498 205.375 550.788 205.008C552.078 204.638 556.13 205.008 556.13 205.008C556.13 205.008 557.606 205.561 558.526 205.561C559.447 205.561 559.632 205.192 560.184 205.192C560.736 205.192 561.841 203.349 561.658 203.166C561.474 202.98 560.922 202.428 562.026 201.322C563.132 200.216 564.421 199.849 564.606 198.559C564.791 197.27 564.238 197.27 564.791 196.531C565.343 195.795 566.632 195.98 566.265 195.242C565.896 194.505 566.632 194.69 565.896 193.214C565.16 191.741 564.237 191.188 564.974 189.345C565.712 187.503 566.45 187.134 566.265 186.029C566.08 184.923 567.186 184.555 565.896 183.265C564.607 181.977 564.054 181.607 563.132 181.237L562.224 180.861L562.211 180.871Z" fill="white"/>
<path d="M598.326 199.296C599.064 199.112 601.643 197.269 601.828 200.586C602.012 203.902 602.195 202.981 603.302 204.823C604.407 206.666 605.142 207.22 606.432 206.298C607.722 205.376 609.196 205.376 609.564 203.719C609.933 202.061 609.933 202.061 611.038 202.061C612.146 202.061 612.513 201.876 613.067 202.615C613.619 203.35 613.986 202.613 616.383 203.903C618.778 205.193 620.804 204.823 622.28 206.114C623.754 207.403 624.49 207.221 626.516 207.957C628.543 208.693 627.621 207.588 629.464 209.615C631.307 211.641 630.572 212.193 631.491 213.115C632.412 214.036 633.15 212.378 632.781 214.589C632.412 216.799 629.833 214.589 633.703 217.719C637.571 220.853 638.124 221.406 639.413 222.326C640.704 223.248 641.624 224.354 640.52 224.354C639.413 224.354 635.913 224.354 635.546 223.801C635.177 223.248 633.519 222.879 632.412 221.59C631.308 220.301 628.913 219.379 628.361 218.274C627.807 217.167 627.071 216.799 626.15 216.799C625.229 216.799 624.308 217.904 623.017 219.195C621.727 220.484 622.282 218.459 620.622 219.01C618.963 219.564 617.123 218.825 616.2 218.089C615.278 217.352 615.464 216.247 613.991 216.799C612.515 217.352 611.596 216.984 612.148 215.879C612.701 214.772 612.332 213.298 612.332 213.298C612.332 213.298 612.886 211.456 611.597 211.088C610.306 210.721 610.307 209.431 609.016 209.061C607.726 208.693 605.7 207.772 605.7 207.772C605.7 207.772 605.516 207.772 604.963 207.587C604.41 207.402 604.41 207.402 602.936 207.035C601.463 206.666 600.356 207.033 599.62 206.113C598.882 205.192 599.251 203.902 599.251 203.902C599.251 203.902 602.199 204.271 599.251 202.06L596.303 199.85C596.303 199.85 596.67 199.665 596.487 199.296C596.299 198.92 598.329 199.288 598.329 199.288L598.326 199.296Z" fill="white"/>
<path d="M515.415 183.998C515.415 183.998 516.335 184.92 517.81 184.735C519.283 184.55 520.387 187.683 521.311 188.788C522.231 189.894 522.785 190.446 524.811 191.736C526.837 193.025 526.653 190.63 529.417 194.5C532.18 198.368 530.89 195.974 532.18 198.368C533.47 200.766 534.207 202.054 534.944 202.608C535.68 203.161 536.234 204.633 536.419 205.187C536.602 205.739 537.891 207.397 537.891 207.95C537.891 208.503 538.261 209.977 537.155 211.266C536.05 212.556 535.128 212.74 535.128 212.74C535.128 212.74 532.917 211.634 532.18 210.529C531.443 209.424 530.523 208.503 529.232 206.293C527.943 204.081 526.468 201.686 525.732 200.581C524.995 199.474 523.889 198.368 523.337 197.264C522.784 196.157 521.31 192.842 520.573 192.473C519.836 192.104 519.651 190.999 518.361 189.709C517.073 188.419 517.256 187.314 516.704 186.578C516.151 185.841 514.862 184.181 514.862 184.181L515.402 184.001L515.415 183.998Z" fill="white"/>
<path d="M157.053 327.709C155.763 326.972 153 325.682 152.079 324.945C151.158 324.209 148.395 320.154 148.395 320.154L146.367 316.284C146.367 316.284 143.973 313.337 144.525 312.232C145.078 311.126 146.184 310.389 146.184 309.836C146.184 309.284 147.289 307.809 146.367 307.257C145.446 306.704 145.446 306.52 144.893 304.862C144.34 303.204 144.34 301.729 143.604 301.361C142.866 300.994 142.313 298.598 141.577 298.413C140.84 298.228 140.103 296.939 140.103 296.939L138.997 282.015C138.997 282.015 138.628 275.199 138.26 273.724C137.891 272.251 138.813 269.119 137.891 266.355C136.97 263.591 138.076 260.275 137.522 259.169C136.97 258.064 137.891 254.933 137.338 251.985C136.786 249.037 139.549 245.352 137.338 244.247C135.127 243.14 136.786 241.483 134.943 241.483C133.101 241.483 131.811 240.561 130.153 239.273C128.495 237.983 125.362 235.587 124.441 234.665C123.52 233.745 120.572 231.349 119.651 230.612C118.73 229.876 117.808 226.743 117.072 225.821C116.335 224.901 115.967 222.138 114.861 220.48C113.755 218.822 112.281 216.059 111.912 215.505C111.544 214.953 107.49 210.162 107.49 210.162L107.859 207.215C107.859 207.215 110.622 205.556 110.254 205.004C109.886 204.451 110.439 203.897 109.148 202.793C107.858 201.686 108.042 199.66 109.148 198.74C110.254 197.817 111.912 194.869 111.912 194.869L114.675 190.264C114.675 190.264 116.887 187.867 116.887 186.21C116.887 184.552 120.018 183.447 118.176 181.973C116.333 180.498 117.255 179.209 116.702 178.103C116.148 176.998 116.518 176.261 118.176 175.155C119.834 174.049 122.782 169.997 122.782 169.997C122.782 169.997 124.993 169.443 125.545 169.443C126.098 169.443 127.02 163.546 128.678 167.416C130.336 171.285 130.889 169.258 130.336 172.022C129.783 174.785 131.073 174.234 131.81 173.497C132.546 172.759 131.441 174.049 132.915 170.732C134.388 167.416 133.837 166.311 134.757 167.232C135.678 168.154 136.047 168.338 137.705 168.891C139.363 169.443 139.916 169.258 140.468 170.364C141.02 171.47 140.837 169.996 143.969 170.549C147.1 171.103 151.522 169.443 150.97 171.285C150.417 173.128 149.311 171.101 151.891 173.128C154.47 175.155 154.839 175.523 156.312 175.892C157.786 176.26 159.076 176.076 161.288 178.287C163.499 180.497 164.051 180.682 164.604 181.786C165.156 182.893 166.077 182.156 166.999 183.261C167.92 184.367 169.21 184.367 170.499 184.367C171.788 184.367 170.499 183.261 172.526 184.736C174.553 186.209 176.027 186.392 176.947 189.341C177.868 192.291 179.711 192.105 178.237 195.054C176.763 198.002 173.816 199.291 175.105 199.107C176.394 198.922 178.79 197.816 179.527 198.001C180.263 198.185 180.632 197.449 181.738 198.001C182.843 198.554 183.028 197.264 182.843 198.554C182.659 199.844 182.659 198.554 182.659 199.844C182.659 201.133 182.29 198.554 184.501 199.107C186.712 199.66 185.422 198 188.001 200.396C190.581 202.792 190.581 202.055 191.501 203.345C192.423 204.633 193.344 202.609 193.897 203.161C194.451 203.712 196.108 203.344 197.767 203.713C199.425 204.081 198.319 202.608 200.899 204.266C203.478 205.923 206.058 205.371 206.61 206.845C207.163 208.318 208.638 207.766 209.374 208.687C210.11 209.609 210.479 208.318 211.216 209.609C211.953 210.898 214.165 210.529 213.796 211.818C213.426 213.109 214.347 212.372 213.979 214.213C213.611 216.058 212.321 219.005 211.216 219.741C210.11 220.479 210.111 221.4 209.374 222.32C208.637 223.243 208.821 221.4 207.9 223.979C206.979 226.559 207.163 226.927 206.426 229.322C205.689 231.716 206.242 229.322 205.689 231.717C205.137 234.112 205.505 235.586 204.953 238.35C204.4 241.113 204.584 241.114 204.216 243.14C203.848 245.167 205.137 242.22 203.478 246.456C201.821 250.695 201.637 250.509 201.084 252.352C200.531 254.196 201.268 252.721 199.242 253.827C197.215 254.933 198.321 254.563 195.925 255.301C193.531 256.038 190.582 256.776 189.661 256.959C188.74 257.143 185.055 258.249 186.161 260.459C187.267 262.67 187.267 263.039 186.161 265.803C185.055 268.566 183.398 269.488 183.398 270.777C183.398 272.066 182.66 273.355 182.477 274.277C182.292 275.198 184.134 273.355 181.924 276.119C179.713 278.883 179.529 278.146 178.792 279.804C178.055 281.462 178.792 280.172 178.055 281.462C177.318 282.751 175.476 283.304 175.476 283.304C175.476 283.304 175.659 284.225 174.922 283.857C174.185 283.49 174.37 284.041 171.606 283.304C168.842 282.567 168.474 280.726 168.105 282.015C167.737 283.304 168.29 284.042 169.948 285.331C171.606 286.621 174.37 286.989 173.632 288.28C172.896 289.57 172.896 289.57 172.343 290.307C171.79 291.044 173.08 290.491 171.79 291.044C170.5 291.597 169.763 293.992 169.21 293.992C168.658 293.992 168.289 294.913 167.552 294.545C166.815 294.176 164.974 292.887 164.604 293.623C164.236 294.359 163.499 292.702 163.683 295.281C163.868 297.86 164.236 299.334 163.314 299.888C162.394 300.44 160.182 299.888 160.182 299.888L159.813 298.966L158.524 299.334C158.524 299.334 157.972 301.545 158.893 301.914C159.813 302.282 159.629 302.65 160.55 303.755C161.472 304.861 160.919 306.888 160.919 306.888C160.919 306.888 160.919 307.441 159.998 308.362C159.078 309.283 158.708 310.021 158.524 310.573C158.339 311.126 157.234 313.522 158.893 313.337C160.55 313.152 161.841 312.231 161.841 315.179C161.841 318.127 162.578 317.391 161.657 319.417C160.735 321.444 159.998 321.628 159.814 323.469C159.631 325.312 159.999 325.496 160.368 326.602C160.736 327.708 161.658 327.155 160.736 327.708C159.819 328.232 157.061 327.683 157.061 327.683L157.053 327.709Z" fill="white"/>
<path d="M109.52 177.733L108.23 175.891C108.23 175.891 107.678 174.784 106.756 174.601C105.835 174.418 103.808 172.022 103.808 172.022C103.808 172.022 102.887 171.285 102.887 169.996C102.887 168.706 102.149 166.68 102.702 164.469C103.255 162.259 103.439 159.495 103.255 158.757C103.07 158.02 104.176 157.836 102.887 157.099C101.597 156.362 99.0176 156.178 97.3592 156.178C95.7017 156.178 93.6741 156.731 93.3058 156.915C92.9374 157.099 95.3325 151.388 95.7009 150.467C96.0692 149.546 97.7276 145.492 97.7276 144.94C97.7276 144.387 98.2801 144.202 97.1751 143.467C96.07 142.729 94.2274 142.361 93.1216 142.913C92.0165 143.466 92.2007 142.176 91.2798 144.387C90.3589 146.598 89.4373 148.993 88.3314 149.362C87.2263 149.731 85.0154 150.836 85.0154 150.836C85.0154 150.836 82.252 150.652 81.3303 150.468C80.4094 150.283 76.5401 148.257 75.8034 146.967C75.0667 145.677 74.6983 142.913 74.6983 141.625C74.6983 140.335 76.7243 136.466 76.5401 135.545C76.3559 134.624 78.5676 130.939 78.3827 130.385C78.1977 129.833 78.751 127.99 79.3035 127.253C79.8561 126.517 82.6203 125.595 83.357 124.858C84.0937 124.121 85.3838 123.201 86.673 122.832C87.9622 122.462 89.0689 122.095 89.9898 122.095C90.9107 122.095 93.3058 120.068 93.6741 122.095C94.0433 124.121 95.7017 123.384 96.6225 123.568C97.5434 123.753 97.7284 124.674 99.2018 122.279C100.676 119.883 102.149 119.146 102.149 119.699C102.149 120.252 104.545 119.516 104.913 120.068C105.281 120.621 106.019 119.699 107.308 120.805C108.598 121.911 110.44 122.095 110.256 122.647C110.071 123.199 110.992 123.199 110.992 123.752C110.992 124.305 111.73 122.462 111.73 125.778C111.73 129.095 112.651 131.122 112.651 131.122C112.651 131.122 113.94 133.886 114.492 133.333C115.045 132.78 116.15 131.307 116.15 131.307C116.15 131.307 117.993 130.201 116.703 126.332C115.413 122.463 116.335 121.357 115.967 120.067C115.597 118.777 115.597 118.04 117.808 116.382C120.019 114.725 125.362 111.039 126.652 110.303C127.941 109.566 130.889 107.539 130.889 107.539C130.889 107.539 131.994 106.987 132.179 105.512C132.363 104.039 135.863 101.459 136.048 100.722C136.233 99.9856 138.628 98.1439 138.628 98.1439C138.628 98.1439 141.207 96.6688 141.023 95.7488C140.839 94.8279 144.339 93.1703 144.892 93.1703C145.445 93.1703 148.393 94.0904 148.393 92.432C148.393 90.7744 148.393 90.4052 150.236 88.9318C152.077 87.4584 154.472 85.2467 155.394 85.2467C156.315 85.2467 159.448 83.5899 160.737 83.2208C162.027 82.8516 166.08 81.009 162.395 83.2208C158.71 85.4309 161.105 84.1416 160.368 85.9842C159.633 87.826 159.078 90.2219 162.579 87.4576C166.08 84.6942 165.895 84.1408 167.185 83.9575C168.475 83.7733 167.554 84.51 170.317 83.5883C173.081 82.6674 173.266 82.2991 173.266 82.2991C173.266 82.2991 174.556 81.1932 173.818 80.6415C173.081 80.0881 174.556 79.3514 171.791 80.4565C169.028 81.5624 169.212 81.7465 167.37 81.1932C165.528 80.6407 162.764 80.824 164.79 78.9815C166.817 77.1397 169.396 76.5864 167.738 75.8497C166.08 75.113 161.843 76.0346 161.29 76.218C160.737 76.4022 159.448 76.0338 158.342 76.218C157.237 76.4022 157.605 74.7454 158.342 74.3763C159.079 74.0071 161.474 72.9012 164.422 72.1645C167.37 71.4278 174.556 71.2436 176.213 71.2436C177.871 71.2436 180.082 71.6128 181.372 70.6911C182.661 69.7702 185.241 68.2968 185.609 67.5585C185.979 66.8218 187.452 65.7167 187.452 65.7167C187.452 65.7167 189.11 64.0584 188.189 63.3217C187.268 62.585 186.346 60.9266 185.609 61.2949C184.873 61.6633 185.426 63.875 183.952 61.4791C182.478 59.0848 182.662 58.7156 181.925 58.1631C181.188 57.6106 180.451 57.9781 181.004 55.3997C181.557 52.8204 181.373 51.7145 181.373 51.7145C181.373 51.7145 181.925 49.5044 181.373 49.3202C180.819 49.1353 180.452 48.5835 179.531 49.1353C178.609 49.6878 173.451 52.2679 172.346 52.8204C171.24 53.3729 169.765 50.6095 170.318 49.3202C170.871 48.0294 170.502 48.7669 169.765 46.9252C169.029 45.0826 166.081 44.7134 164.975 44.7134C163.869 44.7134 161.291 43.055 160.553 44.1609C159.817 45.2659 155.948 48.7661 155.21 49.1353C154.473 49.5044 153.368 46.0035 152.816 51.7145C152.262 57.4272 154.842 59.0848 151.895 59.4532C148.947 59.8215 146.367 61.4791 146.367 61.4791C146.367 61.4791 143.973 61.6641 143.973 63.1375C143.973 64.6125 143.052 68.1119 141.945 68.4802C140.84 68.8494 138.076 68.2968 137.155 67.191C136.234 66.0851 137.339 62.0324 137.339 62.0324L138.998 60.374C138.998 60.374 127.206 58.5323 127.39 57.7948C127.575 57.0581 123.889 55.7688 123.521 54.663C123.153 53.5571 122.968 51.162 123.337 50.2411C123.705 49.3202 128.68 44.8984 131.259 43.9775C133.838 43.0558 138.26 41.0299 139.55 40.6607C140.84 40.2924 143.05 40.4766 143.788 39.5557C144.524 38.634 144.709 36.9764 144.709 36.9764C144.709 36.9764 144.34 34.3963 145.077 34.7647C145.814 35.1339 147.104 35.6864 147.288 36.2389C147.473 36.7914 147.473 38.0815 148.762 36.6064C150.052 35.133 151.711 34.5797 153.184 33.8438C154.658 33.1063 156.868 33.2913 158.159 32.5546C159.448 31.8179 161.659 31.0804 161.843 29.2378C162.028 27.396 161.291 27.9486 160.369 27.7636C159.448 27.5802 160.738 27.9486 157.606 29.422C154.473 30.8954 155.395 29.7903 153.184 30.8954C150.973 32.0012 150.788 32.1854 150.605 31.2645C150.42 30.3428 150.973 28.8694 150.973 28.8694C150.973 28.8694 151.158 28.6844 149.868 28.3169C148.578 27.9486 148.578 28.5011 148.394 26.8435C148.21 25.1851 149.315 22.79 147.473 23.5267C145.63 24.2634 143.973 22.9742 142.683 26.6585C141.393 30.3428 136.971 34.213 135.865 33.2913C134.76 32.3704 134.576 32.1854 133.654 32.1854C132.732 32.1854 131.443 31.0804 129.785 30.8962C128.126 30.712 123.151 30.712 121.863 30.8962C120.573 31.0812 119.099 30.1595 117.993 31.2654C116.888 32.3704 115.23 33.8446 115.23 34.398C115.23 34.9505 113.572 32.3704 113.019 32.5554C112.467 32.7396 110.991 31.8187 109.335 31.8187C107.676 31.8187 106.57 30.897 106.019 30.897C105.466 30.897 106.57 29.4228 106.019 29.2386C105.466 29.0553 93.4891 28.6861 93.4891 28.6861C93.4891 28.6861 89.6206 27.2127 88.1472 27.3969C86.673 27.581 82.6203 27.7644 79.4869 28.3177C76.3543 28.8703 71.7483 30.7128 70.2749 30.897C68.8006 31.082 65.4847 31.082 64.9321 30.1603C64.3788 29.2394 65.1163 29.4236 64.3788 29.2394C63.6421 29.0561 64.1954 28.6869 62.537 27.3977C60.8786 26.1076 63.2746 25.0026 59.9578 25.0026C56.6418 25.0026 54.6151 24.8176 51.6674 25.0026C48.719 25.1868 42.6396 26.6602 41.9029 26.476C41.1662 26.2918 35.2701 27.3977 34.3484 26.8451C33.4275 26.2918 28.8207 28.8711 27.9006 28.6869C26.9798 28.5027 23.4788 28.8719 22.5579 29.4244C21.6362 29.9778 17.2144 31.082 18.6886 32.0037C20.162 32.9246 19.9778 33.8454 20.162 34.3988C20.347 34.9513 18.6886 36.2405 18.6886 36.2405C18.6886 36.2405 18.3194 36.2405 16.2935 35.5038C14.2668 34.7663 12.0559 34.3988 11.1342 34.9513C10.2133 35.5038 8.55488 36.6105 8.92323 37.3472C9.2924 38.0839 11.8709 39.7423 12.24 39.189C12.6084 38.6365 13.5301 37.5314 14.6351 37.7156C15.741 37.9006 17.3994 36.9789 15.9252 38.8214C14.4509 40.6632 13.1609 41.5849 12.24 41.7699C11.3191 41.9532 9.10823 42.1374 7.08148 42.3224C5.05392 42.5074 5.23809 41.5857 3.39634 43.4283C1.55459 45.27 0.817071 44.165 0.44872 46.1917C0.0803699 48.2177 -0.28798 48.2177 0.44872 48.771C1.18542 49.3235 -1.0255 49.5077 0.632895 50.0602C2.29047 50.6136 4.31722 51.1661 4.13304 51.7178C3.94805 52.2711 5.97561 50.9819 4.86974 52.4545C3.76387 53.9295 3.02799 55.2179 5.23809 53.7445C7.44901 52.2711 8.73824 53.3754 10.5808 52.4545C12.4234 51.5336 14.266 51.3495 15.371 50.6128C16.4769 49.8752 17.0294 48.771 18.6878 48.2168C20.3462 47.6643 19.2403 48.4018 19.4245 49.3227C19.6087 50.2436 19.4245 50.4278 20.5304 49.6902C21.6354 48.9535 21.6354 49.5069 23.1096 48.5852C24.583 47.6643 26.2414 46.7426 27.3473 47.2951C28.4524 47.8485 28.8207 47.8485 29.5582 47.8485C30.2949 47.8485 28.6373 47.6635 30.2949 47.8485C31.9533 48.0318 29.5582 47.2951 35.0851 48.5852C40.6128 49.8744 42.087 48.9535 42.4546 50.9803C42.8237 53.007 43.5604 50.7953 44.4813 52.0853C45.4022 53.3746 45.9555 52.2703 46.5081 54.4804C47.0606 56.6922 46.5081 62.7716 46.1397 63.5083C45.7714 64.245 45.5872 64.245 45.7714 65.9034C45.9555 67.561 48.1665 75.4846 47.4298 76.0363C46.6931 76.588 45.0347 76.773 45.0347 76.773L44.1138 80.089C44.1138 80.089 42.6404 82.8524 41.3503 84.3266C40.0603 85.8 38.4027 87.6434 37.481 88.9318C36.5602 90.2219 35.8226 92.4336 34.5334 93.7228C33.2442 95.0121 32.1383 94.4595 32.5067 97.223C32.875 99.9864 32.5067 102.934 32.875 104.962C33.2442 106.988 34.1651 109.752 34.9018 110.858C35.6385 111.963 36.1918 111.963 37.481 112.884C38.7711 113.804 40.4295 114.911 40.2445 115.832C40.0603 116.753 40.4286 122.466 40.4286 122.466C40.4286 122.466 41.5345 124.307 41.7179 126.334C41.9029 128.362 43.1921 130.388 43.1921 130.388L44.298 132.784C44.298 132.784 44.8505 132.969 45.588 134.441C46.3247 135.915 46.3247 135.915 46.5089 136.651C46.6939 137.39 46.6939 137.205 46.6939 137.39C46.6939 137.573 46.5089 134.257 46.1405 133.335C45.7722 132.414 45.7722 131.309 45.4038 130.203C45.0355 129.098 45.588 127.808 44.483 126.15C43.3779 124.492 43.3779 124.307 42.8254 122.649C42.2729 120.991 41.5353 119.149 42.2729 118.78C43.0096 118.412 43.5621 116.017 45.0363 118.78C46.5097 121.543 46.6947 120.807 46.8789 123.018C47.0622 125.229 47.6156 125.967 48.1681 126.887C48.7206 127.808 50.0099 130.941 50.7474 132.229C51.4841 133.519 50.7474 131.493 52.4049 134.072C54.0633 136.651 54.2483 137.204 55.1692 139.23C56.0901 141.257 56.6434 141.257 57.196 142.731C57.7485 144.206 57.3801 143.836 57.011 145.494C56.6426 147.152 57.3793 148.995 57.3793 148.995C57.3793 148.995 59.9586 149.916 60.1428 150.468C60.3269 151.021 62.9062 151.942 63.2754 152.679C63.6437 153.417 66.0388 154.337 66.0388 154.337C66.0388 154.337 68.0656 155.627 68.8015 155.995C69.539 156.364 71.7507 156.733 71.7507 156.733C71.7507 156.733 73.2241 157.102 73.7766 157.285C74.3292 157.47 75.9876 157.47 75.9876 157.47C75.9876 157.47 77.4618 156.365 78.0143 156.733C78.5668 157.1 79.8569 155.995 80.4094 156.916C80.9619 157.838 82.0678 157.838 82.6203 158.575C83.1729 159.312 83.7254 159.312 84.6471 160.233C85.5688 161.154 86.4896 160.97 87.4105 161.706C88.3314 162.443 89.0681 162.443 90.174 162.443C91.279 162.443 91.279 162.443 92.0165 162.628C92.7524 162.812 93.1216 162.075 93.8583 162.997C94.595 163.918 95.1475 164.471 95.7 165.392C96.2526 166.312 97.5426 166.312 97.7268 167.787C97.9109 169.26 98.2793 169.077 98.2793 170.366C98.2793 171.656 99.016 172.208 99.5693 172.578C100.121 172.945 102.148 174.787 102.148 174.787L104.911 175.34L107.122 176.999L109.455 177.735L109.52 177.733Z" fill="white"/>
<path d="M168.57 6.57283L179.625 5.19111C179.625 5.19111 183.493 5.19111 185.428 3.80939C187.363 2.42766 185.428 2.42766 191.232 1.32261C197.036 0.216743 195.378 -0.335783 198.418 0.216743C201.457 0.770087 202.287 0.770087 205.603 1.32261C208.919 1.87514 209.749 1.04676 212.788 1.87514C215.828 2.70434 217.21 2.42766 219.697 2.42766H227.435C231.304 2.42766 234.897 0.216743 236.279 1.59847C237.66 2.98019 238.49 2.42766 243.188 2.98019C247.886 3.53271 249.821 2.42685 251.755 2.98019C253.69 3.53271 257.007 2.70434 260.876 2.98019C264.744 3.25604 266.679 2.70434 268.061 2.70434C269.443 2.70434 270.823 0.769268 272.759 2.42766C274.694 4.08606 277.18 1.87514 277.456 4.08606C277.733 6.29698 281.326 4.63858 277.733 6.29698C274.14 7.95537 274.693 7.6787 272.205 9.88962C269.718 12.1005 273.864 14.0348 268.613 15.9699C263.362 17.9041 262.532 14.864 261.151 18.1808C259.769 21.4968 261.151 22.326 260.875 23.9843C260.598 25.6419 260.046 25.9186 258.387 27.3003C256.73 28.682 256.73 27.3003 252.86 28.1295C248.991 28.9587 246.228 29.7879 244.57 29.7879C242.912 29.7879 239.319 31.1696 238.213 31.7222C237.107 32.2755 240.148 33.1039 234.344 34.7623C228.54 36.4207 227.158 36.1448 225.5 38.3549C223.842 40.5667 224.394 40.8433 223.289 42.2251C222.183 43.6068 218.867 49.1345 217.209 47.7528C215.551 46.371 214.721 46.6469 213.34 45.2652C211.958 43.8834 211.129 41.9492 210.299 40.8433C209.47 39.7375 209.194 36.974 208.918 35.3156C208.642 33.6572 206.153 29.7887 208.918 30.3413C211.681 30.8938 213.34 30.6179 214.169 30.0654C214.998 29.5121 215.827 27.5778 215.827 27.5778C215.827 27.5778 215.551 24.5377 214.721 22.8793C213.892 21.2209 214.445 19.8392 213.064 18.1816C211.682 16.5232 211.682 16.7999 209.747 15.1415C207.813 13.4831 208.365 12.6539 205.325 12.378C202.285 12.1022 201.456 11.2722 200.35 11.5488C199.245 11.8247 195.652 9.61377 199.521 9.33792C203.39 9.06124 206.983 9.61377 206.983 9.61377C206.983 9.61377 211.957 7.40285 210.299 7.127C208.642 6.85032 212.786 4.36273 208.918 5.19193C205.048 6.02113 200.627 7.127 199.521 7.40285C198.416 7.6787 195.652 7.95537 192.889 8.78457C190.126 9.61377 186.808 9.33792 185.151 11.2722C183.493 13.2064 185.151 13.4831 183.493 13.2064C181.835 12.9306 184.874 11.2722 181.006 13.2064C177.136 15.1415 178.242 14.8648 176.308 14.3123C174.373 13.7598 172.991 12.9306 172.991 12.9306C172.991 12.9306 175.48 12.6539 171.886 12.378C168.294 12.1022 168.294 12.1022 166.912 10.443C165.53 8.78457 166.359 8.78457 167.188 8.23205C168.006 7.6787 168.563 6.57283 168.563 6.57283H168.57Z" fill="white"/>
<path d="M162.489 19.0093C161.107 20.391 157.79 22.3261 158.62 23.1553C159.449 23.9845 160.002 27.0246 161.66 26.1954C163.318 25.3662 161.383 22.6027 167.74 24.8137C174.096 27.0246 173.543 24.5378 174.925 27.8538C176.307 31.1698 177.412 33.6565 176.582 34.4865C175.754 35.3157 175.477 36.1449 172.713 36.9741C169.95 37.8033 168.844 38.9092 170.779 40.2901C172.713 41.6718 176.307 43.0536 177.964 43.8836C179.623 44.7119 184.597 44.9894 182.109 42.226C179.622 39.4625 182.662 38.6325 182.662 38.6325C182.662 38.6325 187.36 42.226 185.703 38.08C184.044 33.9348 182.939 33.9348 184.044 33.9348C185.15 33.9348 187.36 35.3166 187.36 35.3166L188.466 33.1056L187.36 29.513L183.768 25.9203C183.768 25.9203 186.807 23.1569 182.662 22.6044C178.517 22.0519 178.793 22.0519 176.582 20.6693C174.371 19.2876 174.095 18.7351 169.949 19.5643C165.804 20.3935 164.422 20.946 164.422 20.946L162.498 19.0093H162.489Z" fill="white"/>
<path d="M100.859 22.3262C102.518 20.6678 106.94 16.7993 108.598 17.9044C110.256 19.0095 112.742 17.0752 114.677 18.7336C116.612 20.392 118.823 22.3262 120.481 22.8788C122.139 23.4313 124.074 21.497 125.732 22.3262C127.39 23.1554 133.193 18.1811 132.088 22.0504C130.982 25.9197 133.47 27.0248 130.43 27.3014C127.39 27.5781 124.074 29.789 122.691 28.9598C121.309 28.1306 120.203 27.3014 117.993 28.4073C115.782 29.5123 116.888 29.5123 114.4 28.9598C111.913 28.4073 111.361 29.5123 110.808 28.6831C110.255 27.8548 108.597 28.1306 108.873 25.643C109.149 23.1563 109.978 23.4321 108.32 23.4321C106.662 23.4321 105.28 23.7088 104.175 22.8796C103.078 22.0504 100.868 22.3262 100.868 22.3262H100.859Z" fill="white"/>
</svg>
