<svg width="40" height="40" viewBox="0 0 40 40" fill="none" xmlns="http://www.w3.org/2000/svg">
<g clip-path="url(#clip0_1582_3283)">
<path d="M32.4997 20.9536L19.9997 33.3336L7.49969 20.9536C6.6752 20.1513 6.02576 19.187 5.59227 18.1214C5.15878 17.0557 4.95062 15.9119 4.98092 14.7618C5.01121 13.6118 5.27929 12.4805 5.76828 11.4392C6.25727 10.3979 6.95658 9.46905 7.82217 8.71126C8.68775 7.95347 9.70086 7.38311 10.7977 7.0361C11.8946 6.68908 13.0514 6.57293 14.1953 6.69496C15.3392 6.81699 16.4455 7.17456 17.4445 7.74514C18.4434 8.31572 19.3134 9.08696 19.9997 10.0103C20.6889 9.09366 21.5599 8.32916 22.5582 7.76464C23.5565 7.20011 24.6605 6.84771 25.8012 6.72949C26.942 6.61128 28.0948 6.72979 29.1876 7.07761C30.2805 7.42544 31.2897 7.99508 32.1523 8.7509C33.0148 9.50672 33.7121 10.4324 34.2004 11.4701C34.6887 12.5078 34.9576 13.6351 34.9902 14.7815C35.0228 15.9278 34.8185 17.0686 34.3899 18.1324C33.9614 19.1961 33.3179 20.16 32.4997 20.9636" stroke="white" stroke-width="3.33333" stroke-linecap="round" stroke-linejoin="round"/>
<path d="M19.9997 10L14.5114 15.4883C14.199 15.8009 14.0234 16.2247 14.0234 16.6667C14.0234 17.1086 14.199 17.5325 14.5114 17.845L15.4164 18.75C16.5664 19.9 18.4331 19.9 19.5831 18.75L21.2497 17.0833C22.2443 16.0888 23.5932 15.53 24.9997 15.53C26.4063 15.53 27.7552 16.0888 28.7497 17.0833L32.4997 20.8333" stroke="white" stroke-width="3.33333" stroke-linecap="round" stroke-linejoin="round"/>
<path d="M20.8335 25.8333L24.1668 29.1666" stroke="white" stroke-width="3.33333" stroke-linecap="round" stroke-linejoin="round"/>
<path d="M25 21.6667L28.3333 25.0001" stroke="white" stroke-width="3.33333" stroke-linecap="round" stroke-linejoin="round"/>
</g>
<defs>
<clipPath id="clip0_1582_3283">
<rect width="40" height="40" fill="white"/>
</clipPath>
</defs>
</svg>
