<svg width="166" height="36" viewBox="0 0 166 36" fill="none" xmlns="http://www.w3.org/2000/svg">
<path d="M11.4117 7.88502C13.5409 7.88502 15.2488 8.59479 16.5353 10.0143C17.8217 11.4117 18.4649 13.3413 18.4649 15.8033V26.6494H12.809V16.5685C12.809 15.3264 12.4874 14.3616 11.8442 13.674C11.2009 12.9864 10.3359 12.6427 9.2491 12.6427C8.16228 12.6427 7.29725 12.9864 6.65403 13.674C6.01081 14.3616 5.68919 15.3264 5.68919 16.5685V26.6494H0V2.02948H5.68919V10.5799C6.26588 9.75924 7.05327 9.10493 8.05137 8.61697C9.04948 8.12901 10.1696 7.88502 11.4117 7.88502Z" fill="white"/>
<path d="M25.2796 6.15498C24.2815 6.15498 23.4608 5.86664 22.8176 5.28995C22.1966 4.69109 21.886 3.95915 21.886 3.09412C21.886 2.20692 22.1966 1.47498 22.8176 0.898294C23.4608 0.299431 24.2815 0 25.2796 0C26.2555 0 27.054 0.299431 27.675 0.898294C28.3183 1.47498 28.6399 2.20692 28.6399 3.09412C28.6399 3.95915 28.3183 4.69109 27.675 5.28995C27.054 5.86664 26.2555 6.15498 25.2796 6.15498ZM28.1076 8.08465V26.6494H22.4184V8.08465H28.1076Z" fill="white"/>
<path d="M37.9196 11.1788C38.585 10.1585 39.4168 9.36 40.4149 8.78332C41.413 8.18446 42.522 7.88502 43.7419 7.88502V13.9069H42.1782C40.7587 13.9069 39.694 14.2174 38.9843 14.8385C38.2745 15.4373 37.9196 16.502 37.9196 18.0324V26.6494H32.2304V8.08465H37.9196V11.1788Z" fill="white"/>
<path d="M63.9613 17.0676C63.9613 17.5999 63.9281 18.1544 63.8615 18.7311H50.986C51.0747 19.8845 51.4407 20.7717 52.0839 21.3927C52.7493 21.9916 53.5589 22.291 54.5126 22.291C55.9321 22.291 56.9191 21.6921 57.4736 20.4944H63.5288C63.2183 21.7143 62.6527 22.8122 61.832 23.7882C61.0336 24.7641 60.0244 25.5293 58.8045 26.0838C57.5846 26.6383 56.2205 26.9155 54.7122 26.9155C52.8935 26.9155 51.2743 26.5274 49.8548 25.7511C48.4353 24.9748 47.3263 23.8658 46.5278 22.4241C45.7293 20.9824 45.33 19.2967 45.33 17.367C45.33 15.4373 45.7182 13.7517 46.4945 12.31C47.293 10.8682 48.402 9.75924 49.8215 8.98294C51.241 8.20663 52.8713 7.81848 54.7122 7.81848C56.5088 7.81848 58.1058 8.19555 59.5031 8.94967C60.9005 9.70379 61.9873 10.7795 62.7636 12.1769C63.5621 13.5742 63.9613 15.2045 63.9613 17.0676ZM58.1391 15.5704C58.1391 14.5945 57.8064 13.8182 57.141 13.2415C56.4755 12.6648 55.6438 12.3765 54.6457 12.3765C53.6919 12.3765 52.8824 12.6537 52.217 13.2082C51.5737 13.7627 51.1745 14.5501 51.0192 15.5704H58.1391Z" fill="white"/>
<path d="M73.5169 26.8823C71.5428 26.8823 69.9459 26.483 68.726 25.6846C67.5283 24.8861 66.8296 23.6773 66.63 22.0581H67.2954C67.4284 23.3889 68.0162 24.4314 69.0587 25.1855C70.1233 25.9174 71.6205 26.2834 73.5501 26.2834C74.5261 26.2834 75.38 26.0949 76.1119 25.7178C76.8661 25.3408 77.4428 24.8417 77.842 24.2207C78.2412 23.5774 78.4409 22.8899 78.4409 22.1579C78.4409 21.3594 78.208 20.7162 77.7422 20.2282C77.2986 19.7181 76.733 19.33 76.0454 19.0638C75.38 18.7976 74.4595 18.5093 73.284 18.1988C71.9754 17.8661 70.9107 17.5334 70.0901 17.2007C69.2916 16.868 68.604 16.3578 68.0273 15.6702C67.4728 14.9827 67.1955 14.0733 67.1955 12.9421C67.1955 12.1436 67.4395 11.4006 67.9275 10.713C68.4155 10.0254 69.0809 9.48199 69.9237 9.08275C70.7887 8.66133 71.7536 8.45061 72.8182 8.45061C74.637 8.45061 76.1009 8.90531 77.2099 9.81469C78.3189 10.7241 78.9177 11.9883 79.0065 13.6075H78.341C78.2745 12.2767 77.7644 11.1899 76.8106 10.347C75.8791 9.48199 74.5483 9.04948 72.8182 9.04948C71.8866 9.04948 71.0438 9.22692 70.2897 9.5818C69.5356 9.93668 68.9367 10.4136 68.4931 11.0124C68.0717 11.6113 67.861 12.2545 67.861 12.9421C67.861 13.918 68.116 14.7054 68.6262 15.3043C69.1363 15.9031 69.7573 16.3467 70.4893 16.6351C71.2434 16.9234 72.2415 17.2339 73.4836 17.5666C74.7479 17.9215 75.7349 18.2431 76.4446 18.5315C77.1766 18.8198 77.7976 19.2634 78.3078 19.8623C78.8179 20.439 79.073 21.2042 79.073 22.1579C79.073 23.0451 78.829 23.8547 78.341 24.5866C77.8531 25.2964 77.1877 25.862 76.3448 26.2834C75.502 26.6827 74.5593 26.8823 73.5169 26.8823Z" fill="white"/>
<path d="M82.9789 17.6664C82.9789 15.7811 83.3448 14.1509 84.0768 12.7757C84.8087 11.3784 85.8401 10.3137 87.1709 9.5818C88.5017 8.82768 90.021 8.45061 91.7289 8.45061C93.7916 8.45061 95.5328 8.99403 96.9523 10.0809C98.394 11.1455 99.3589 12.5096 99.8468 14.1731V8.68351H100.479V26.6494H99.8468V21.1598C99.3589 22.8233 98.394 24.1985 96.9523 25.2853C95.5328 26.35 93.7916 26.8823 91.7289 26.8823C90.021 26.8823 88.5017 26.5163 87.1709 25.7844C85.8401 25.0302 84.8087 23.9656 84.0768 22.5904C83.3448 21.1931 82.9789 19.5518 82.9789 17.6664ZM99.8468 17.6664C99.8468 15.9586 99.4919 14.4614 98.7822 13.175C98.0946 11.8664 97.1298 10.8572 95.8877 10.1474C94.6678 9.41545 93.2815 9.04948 91.7289 9.04948C90.0876 9.04948 88.657 9.39327 87.437 10.0809C86.2393 10.7684 85.3078 11.7665 84.6424 13.0752C83.977 14.3616 83.6443 15.892 83.6443 17.6664C83.6443 19.4409 83.977 20.9824 84.6424 22.291C85.3078 23.5774 86.2393 24.5645 87.437 25.252C88.657 25.9396 90.0876 26.2834 91.7289 26.2834C93.2815 26.2834 94.6678 25.9285 95.8877 25.2188C97.1298 24.4868 98.0946 23.4776 98.7822 22.1912C99.4919 20.8826 99.8468 19.3743 99.8468 17.6664Z" fill="white"/>
<path d="M106.764 14.1731C107.252 12.5096 108.205 11.1455 109.625 10.0809C111.067 8.99403 112.819 8.45061 114.882 8.45061C116.589 8.45061 118.109 8.82768 119.44 9.5818C120.77 10.3137 121.802 11.3784 122.534 12.7757C123.266 14.1509 123.632 15.7811 123.632 17.6664C123.632 19.5518 123.266 21.1931 122.534 22.5904C121.802 23.9656 120.77 25.0302 119.44 25.7844C118.109 26.5163 116.589 26.8823 114.882 26.8823C112.819 26.8823 111.067 26.35 109.625 25.2853C108.205 24.1985 107.252 22.8233 106.764 21.1598V35.1H106.131V8.68351H106.764V14.1731ZM122.966 17.6664C122.966 15.892 122.633 14.3616 121.968 13.0752C121.303 11.7665 120.36 10.7684 119.14 10.0809C117.942 9.39327 116.523 9.04948 114.882 9.04948C113.329 9.04948 111.932 9.41545 110.689 10.1474C109.47 10.8572 108.505 11.8664 107.795 13.175C107.107 14.4614 106.764 15.9586 106.764 17.6664C106.764 19.3743 107.107 20.8826 107.795 22.1912C108.505 23.4776 109.47 24.4868 110.689 25.2188C111.932 25.9285 113.329 26.2834 114.882 26.2834C116.523 26.2834 117.942 25.9396 119.14 25.252C120.36 24.5645 121.303 23.5774 121.968 22.291C122.633 20.9824 122.966 19.4409 122.966 17.6664Z" fill="white"/>
<path fill-rule="evenodd" clip-rule="evenodd" d="M138.013 2.57861C133.745 2.57861 130.286 6.03823 130.286 10.3059V24.7945C130.286 29.0621 133.745 32.5217 138.013 32.5217H157.331C161.599 32.5217 165.058 29.0621 165.058 24.7945V10.3059C165.058 6.03822 161.599 2.57861 157.331 2.57861H138.013ZM139.798 20.4945C140.209 20.4945 140.547 20.4518 140.812 20.3663C141.284 20.2074 141.671 19.902 141.972 19.45C142.213 19.0876 142.386 18.6233 142.492 18.0573C142.553 17.7193 142.583 17.4057 142.583 17.1166C142.583 16.0048 142.361 15.1415 141.917 14.5266C141.478 13.9117 140.767 13.6042 139.786 13.6042H137.629V20.4945H139.798ZM136.408 12.5597H140.042C141.276 12.5597 142.233 12.9975 142.913 13.873C143.52 14.663 143.823 15.675 143.823 16.9089C143.823 17.8618 143.644 18.7231 143.286 19.4928C142.654 20.8529 141.569 21.533 140.03 21.533H136.408V12.5597ZM145.509 12.5597H152.051V13.6592H146.694V16.3836H151.648V17.422H146.694V20.464H152.143V21.533H145.509V12.5597ZM157.024 20.2013L154.446 12.5597H153.102L156.37 21.533H157.659L160.933 12.5597H159.571L157.024 20.2013Z" fill="#65FBD2"/>
</svg>
