<svg width="171" height="54" viewBox="0 0 171 54" fill="none" xmlns="http://www.w3.org/2000/svg">
<g clip-path="url(#clip0_161_3438)">
<path d="M48.887 40.9908C48.7545 40.8407 48.6717 40.7072 48.6054 40.5571C48.5392 40.407 48.6054 40.2569 48.7711 40.0734L50.3778 38.4889C50.5269 38.3555 50.6594 38.3221 50.7919 38.3555C50.9244 38.3889 51.0735 38.4722 51.206 38.6057C51.4379 38.8392 51.703 39.0894 52.0011 39.3396C52.2993 39.5897 52.614 39.8066 52.9618 40.0067C53.3097 40.2069 53.6741 40.3736 54.0716 40.4904C54.4692 40.6072 54.8999 40.6739 55.3305 40.6739C55.8109 40.6739 56.225 40.6072 56.5894 40.4737C56.9538 40.3403 57.2686 40.1735 57.5336 39.9567C57.7986 39.7398 57.9974 39.4897 58.1299 39.2061C58.2624 38.9226 58.3287 38.639 58.3287 38.3221C58.3287 37.9385 58.2127 37.6049 57.9808 37.3548C57.7489 37.0879 57.4673 36.8711 57.136 36.6876C56.8048 36.5041 56.4403 36.354 56.0428 36.2373C55.6453 36.1205 55.2974 36.0204 54.9827 35.937C53.0612 35.3533 51.587 34.6528 50.5766 33.8021C49.5662 32.9682 49.0527 31.8507 49.0527 30.4997C49.0527 29.7658 49.2017 29.082 49.5165 28.4815C49.8312 27.8811 50.2619 27.3474 50.825 26.897C51.3882 26.4634 52.0674 26.1131 52.8625 25.8796C53.6575 25.6461 54.5355 25.5127 55.4962 25.5127C56.5397 25.5127 57.5502 25.7629 58.5275 26.2632C59.4882 26.7636 60.333 27.3641 61.0452 28.0979C61.3268 28.3982 61.3268 28.7151 61.0287 29.032L59.7201 30.4497C59.5544 30.5998 59.4054 30.6331 59.2728 30.5831C59.1238 30.5331 58.9747 30.433 58.8256 30.2996C58.6268 30.1328 58.4115 29.966 58.163 29.7658C57.9146 29.5657 57.6495 29.3989 57.3514 29.2154C57.0532 29.0486 56.7385 28.9152 56.4238 28.7984C56.1091 28.6817 55.7612 28.6317 55.4134 28.6317C55.1152 28.6317 54.8005 28.6483 54.4692 28.6984C54.1379 28.7484 53.8397 28.8318 53.5913 28.9819C53.3263 29.1153 53.1109 29.3155 52.9287 29.5657C52.7465 29.8159 52.6637 30.1494 52.6637 30.5664C52.6637 30.8666 52.7465 31.1335 52.9121 31.367C53.0778 31.5838 53.3263 31.784 53.6244 31.9508C53.9391 32.1176 54.3035 32.2677 54.7177 32.4178C55.1318 32.5679 55.6121 32.7013 56.1091 32.8514C56.9207 33.0849 57.6827 33.3685 58.3949 33.652C59.1072 33.9522 59.7366 34.3192 60.2667 34.7528C60.7968 35.1865 61.2274 35.7035 61.5422 36.2873C61.8569 36.8877 62.0225 37.5883 62.0225 38.4222C62.0225 39.2562 61.8403 40.0234 61.4759 40.6905C61.1115 41.3744 60.6146 41.9581 60.0017 42.4418C59.3888 42.9255 58.6765 43.2925 57.8814 43.5427C57.0698 43.7928 56.2416 43.9263 55.3802 43.9263C54.1379 43.9263 52.9453 43.6594 51.8023 43.109C50.6594 42.5586 49.7152 41.8581 48.887 40.9908Z" fill="#131313"/>
<path d="M63.8608 37.8386C63.8608 36.9879 64.0265 36.1874 64.3412 35.4368C64.6559 34.6862 65.1032 34.0191 65.6664 33.4687C66.2295 32.9016 66.8921 32.4679 67.6375 32.151C68.3829 31.8341 69.1946 31.6674 70.0559 31.6674C70.9172 31.6674 71.7289 31.8341 72.4743 32.151C73.2197 32.4679 73.8823 32.9183 74.4289 33.4687C74.9921 34.0358 75.4227 34.6862 75.754 35.4368C76.0853 36.1874 76.2344 36.9879 76.2344 37.8386C76.2344 38.6892 76.0687 39.4898 75.754 40.2403C75.4227 40.9909 74.9921 41.6414 74.4289 42.1918C73.8657 42.7422 73.2197 43.1758 72.4743 43.5094C71.7289 43.843 70.9172 43.9931 70.0559 43.9931C69.1946 43.9931 68.3995 43.8263 67.6375 43.5094C66.8755 43.1925 66.2295 42.7589 65.6664 42.1918C65.1032 41.6414 64.6559 40.9909 64.3412 40.2403C64.0265 39.4898 63.8608 38.6892 63.8608 37.8386ZM67.0412 37.8553C67.0412 38.2889 67.1074 38.6892 67.2731 39.0728C67.4222 39.4564 67.6375 39.79 67.9025 40.0735C68.1676 40.3571 68.4989 40.5906 68.8633 40.7407C69.2277 40.9075 69.6252 40.9742 70.0559 40.9742C70.4866 40.9742 70.8841 40.8908 71.2485 40.7407C71.6129 40.5739 71.9277 40.3571 72.2093 40.0735C72.4743 39.79 72.6896 39.4564 72.8553 39.0728C73.0209 38.6892 73.0872 38.2889 73.0872 37.8553C73.0872 37.4216 73.0043 37.0213 72.8553 36.6377C72.6896 36.2541 72.4743 35.9205 72.2093 35.6369C71.9442 35.3534 71.6129 35.1199 71.2485 34.9531C70.8841 34.7863 70.4866 34.7029 70.0559 34.7029C69.6252 34.7029 69.2277 34.7863 68.8633 34.9531C68.4989 35.1199 68.1841 35.3534 67.9025 35.6369C67.6375 35.9205 67.4222 36.2541 67.2731 36.6377C67.1074 37.0213 67.0412 37.4216 67.0412 37.8553Z" fill="#131313"/>
<path d="M88.2602 43.7098C88.0283 43.7098 87.8461 43.6764 87.7136 43.6097C87.581 43.543 87.4982 43.4429 87.432 43.3095C87.3657 43.1761 87.316 43.0259 87.2829 42.8592C87.2498 42.6757 87.2001 42.4922 87.1504 42.2754C86.786 42.6924 86.2559 43.0593 85.5768 43.3762C84.8976 43.6931 84.1688 43.8599 83.3903 43.8599C82.6614 43.8599 82.0154 43.7431 81.4357 43.5096C80.8725 43.2761 80.3921 42.9426 80.0111 42.5256C79.6302 42.1086 79.3486 41.5916 79.1498 41.0245C78.951 40.4407 78.8682 39.8069 78.8682 39.1231V32.6183C78.8682 32.4014 78.9345 32.218 79.067 32.0845C79.1995 31.9511 79.3651 31.8844 79.5639 31.8844H81.5185C81.767 31.8844 81.9492 31.9511 82.0486 32.0679C82.1479 32.1846 82.1976 32.3681 82.1976 32.5849V38.556C82.1976 39.2065 82.3798 39.7402 82.7608 40.1238C83.1418 40.5074 83.6387 40.7076 84.2516 40.7076C84.5001 40.7076 84.7982 40.6575 85.113 40.5575C85.4277 40.4574 85.7258 40.3073 85.9909 40.1405C86.2559 39.957 86.4878 39.7402 86.6866 39.49C86.8853 39.2398 86.9682 38.9563 86.9682 38.6394V32.5682C86.9682 32.1179 87.2001 31.9011 87.6639 31.9011H89.6019C89.8172 31.9011 89.9994 31.9678 90.1154 32.1012C90.2313 32.2347 90.2976 32.3848 90.2976 32.5849V43.0093C90.2976 43.493 90.0491 43.7265 89.5522 43.7265H88.2602V43.7098Z" fill="#131313"/>
<path d="M96.0119 32.5671C96.0284 32.6505 96.0616 32.8006 96.1278 33.0342C96.1941 33.2677 96.2272 33.4178 96.2438 33.5012C96.3928 33.301 96.5585 33.1009 96.7572 32.9007C96.956 32.6839 97.1879 32.5004 97.4364 32.3336C97.6849 32.1669 97.9665 32.0334 98.2646 31.9167C98.5628 31.7999 98.8775 31.7499 99.2253 31.7499C99.3082 31.7499 99.3744 31.7499 99.4572 31.7499C99.5401 31.7499 99.6063 31.7499 99.6891 31.7666C99.9045 31.7832 100.17 31.85 100.451 31.95C100.733 32.0501 101.014 32.1669 101.263 32.317C101.511 32.4504 101.727 32.6005 101.909 32.7506C102.091 32.9007 102.174 33.0342 102.174 33.1676C102.174 33.2677 102.141 33.3677 102.058 33.5012L101.097 35.069C100.948 35.2858 100.783 35.4026 100.6 35.4026C100.534 35.4026 100.435 35.3692 100.319 35.3192C100.186 35.2691 100.054 35.2024 99.9045 35.119C99.6891 34.9522 99.4904 34.8522 99.3247 34.7855C99.1591 34.7187 98.9603 34.6854 98.745 34.6854C98.3971 34.6854 98.0824 34.7521 97.8008 34.8855C97.5192 35.019 97.2873 35.2024 97.0885 35.4192C96.8898 35.6361 96.7407 35.9029 96.6413 36.1865C96.5419 36.47 96.4922 36.7369 96.4922 37.0204V43.1082C96.4922 43.5085 96.2769 43.7087 95.8462 43.7087H93.8585C93.4444 43.7087 93.229 43.5085 93.229 43.1082V32.5671C93.229 32.367 93.2953 32.2002 93.4278 32.1001C93.5603 32.0001 93.6928 31.95 93.8585 31.95H95.3824C95.5812 31.95 95.7137 32.0167 95.7965 32.1502C95.8793 32.2836 95.9622 32.4004 96.0119 32.5671Z" fill="#131313"/>
<path d="M109.296 40.9909C109.777 40.9742 110.191 40.9075 110.539 40.7741C110.887 40.6406 111.251 40.4905 111.632 40.3237C111.798 40.2403 111.897 40.207 111.963 40.207C112.079 40.207 112.195 40.2904 112.328 40.4738L113.355 41.9583C113.421 42.0917 113.454 42.1751 113.454 42.2251C113.454 42.3752 113.404 42.4753 113.305 42.5587C113.206 42.6421 113.123 42.7088 113.04 42.7755C112.51 43.1258 111.947 43.4093 111.317 43.6428C110.688 43.8763 110.042 43.9931 109.363 43.9931C108.518 43.9931 107.723 43.8263 106.977 43.5094C106.232 43.1925 105.586 42.7589 105.023 42.1918C104.46 41.6414 104.029 40.9909 103.714 40.2403C103.4 39.4898 103.234 38.6892 103.234 37.8386C103.234 36.9879 103.4 36.1874 103.714 35.4368C104.029 34.6862 104.476 34.0191 105.023 33.4687C105.586 32.9016 106.232 32.4679 106.977 32.151C107.723 31.8341 108.518 31.6674 109.363 31.6674C110.009 31.6674 110.622 31.7674 111.201 31.9843C111.781 32.2011 112.344 32.4846 112.924 32.8516H112.907C113.04 32.935 113.139 33.0184 113.222 33.1184C113.305 33.2185 113.338 33.3186 113.338 33.452C113.338 33.4854 113.338 33.5354 113.322 33.5854C113.322 33.6355 113.288 33.6855 113.255 33.7189L112.328 35.3367C112.295 35.4034 112.245 35.4535 112.179 35.5035C112.112 35.5536 112.03 35.5702 111.947 35.5702C111.88 35.5702 111.748 35.5202 111.566 35.4034C111.301 35.1866 110.953 35.0031 110.555 34.853C110.158 34.7196 109.76 34.6529 109.379 34.6529C108.932 34.6529 108.518 34.7363 108.137 34.9198C107.756 35.1032 107.425 35.3367 107.143 35.6369C106.861 35.9372 106.646 36.2874 106.48 36.671C106.315 37.0713 106.249 37.4883 106.249 37.922C106.249 38.8393 106.547 39.5899 107.127 40.1569C107.706 40.6907 108.435 40.9909 109.296 40.9909Z" fill="#131313"/>
<path d="M121.969 41.1236C122.317 41.1403 122.664 41.0902 122.996 40.9735C123.327 40.8567 123.658 40.7233 123.973 40.5398C124.105 40.4731 124.221 40.4064 124.337 40.323C124.453 40.2396 124.553 40.2062 124.652 40.2062C124.801 40.2062 124.917 40.273 125.016 40.4231L125.894 41.8408C125.977 41.9742 126.01 42.0743 126.01 42.1577C126.01 42.2911 125.977 42.3912 125.894 42.4746C125.812 42.558 125.729 42.6414 125.629 42.7248C125.116 43.1084 124.569 43.4086 123.973 43.6421C123.377 43.8589 122.731 43.9757 122.051 43.9757C121.223 43.9757 120.445 43.8089 119.699 43.492C118.954 43.1751 118.308 42.7414 117.761 42.1744C117.215 41.6073 116.767 40.9735 116.453 40.2062C116.121 39.4557 115.956 38.6551 115.956 37.8045C115.956 36.9705 116.121 36.1866 116.436 35.4361C116.751 34.6855 117.182 34.035 117.728 33.4679C118.275 32.9009 118.904 32.4505 119.617 32.1169C120.329 31.7834 121.091 31.6166 121.902 31.6166C122.664 31.6166 123.393 31.7667 124.072 32.0502C124.751 32.3338 125.364 32.7341 125.878 33.2344C126.391 33.7348 126.805 34.3186 127.104 34.9857C127.402 35.6529 127.551 36.3534 127.551 37.1206C127.551 37.7544 127.501 38.2048 127.402 38.4883C127.302 38.7718 127.07 38.9053 126.723 38.9053H119.285C119.318 39.2555 119.418 39.5724 119.6 39.8393C119.782 40.1062 119.998 40.3397 120.246 40.5398C120.494 40.74 120.793 40.8734 121.091 40.9735C121.372 41.0735 121.67 41.1236 121.969 41.1236ZM119.269 36.5702H124.404C124.37 35.9698 124.105 35.4527 123.625 35.0191C123.145 34.6021 122.532 34.3853 121.82 34.3853C121.538 34.3853 121.24 34.4353 120.958 34.5521C120.677 34.6688 120.412 34.8189 120.163 35.0191C119.931 35.2192 119.732 35.4527 119.567 35.7196C119.418 35.9865 119.318 36.27 119.269 36.5702Z" fill="#131313"/>
<path d="M130.979 43.1084V26.4461C130.979 26.0459 131.162 25.8457 131.526 25.8457H133.63C134.027 25.8457 134.226 26.0459 134.226 26.4461V33.1844C134.557 32.7508 134.971 32.4005 135.452 32.1337C135.932 31.8668 136.545 31.7334 137.257 31.7334C138.069 31.7334 138.814 31.9002 139.51 32.2171C140.189 32.534 140.786 32.9676 141.266 33.5347C141.746 34.0851 142.127 34.7356 142.409 35.4695C142.69 36.2033 142.823 37.0039 142.823 37.8546C142.823 38.6885 142.674 39.4724 142.392 40.223C142.111 40.9735 141.713 41.6073 141.216 42.1577C140.719 42.7081 140.14 43.1418 139.46 43.4587C138.781 43.7756 138.052 43.9424 137.257 43.9424C136.495 43.9424 135.849 43.8089 135.352 43.5421C134.839 43.2752 134.392 42.8582 133.994 42.2745C133.961 42.4579 133.928 42.6081 133.895 42.7415C133.862 42.8749 133.829 43.025 133.795 43.1585C133.713 43.442 133.547 43.6088 133.265 43.6422C133 43.6755 132.719 43.6922 132.454 43.6922H131.543C131.162 43.6755 130.979 43.4754 130.979 43.1084ZM133.911 37.9046C133.911 38.3382 133.994 38.7385 134.143 39.1388C134.292 39.5224 134.508 39.856 134.773 40.1396C135.038 40.4231 135.336 40.6399 135.7 40.8067C136.048 40.9735 136.413 41.0569 136.794 41.0569C137.191 41.0569 137.556 40.9735 137.903 40.8067C138.251 40.6399 138.549 40.4064 138.798 40.1229C139.046 39.8393 139.262 39.4891 139.411 39.1055C139.56 38.7219 139.643 38.3049 139.643 37.8712C139.643 37.4376 139.576 37.0206 139.427 36.637C139.278 36.2367 139.096 35.9031 138.848 35.6196C138.599 35.336 138.301 35.1025 137.97 34.9357C137.622 34.769 137.257 34.6856 136.876 34.6856C136.479 34.6856 136.098 34.769 135.75 34.9357C135.402 35.1025 135.087 35.336 134.822 35.6196C134.557 35.9031 134.342 36.2534 134.176 36.637C134.011 37.0373 133.945 37.4376 133.945 37.8712V37.9046H133.911Z" fill="#131313"/>
<path d="M153.706 43.0591C153.673 42.8924 153.657 42.7756 153.64 42.6588C153.623 42.5588 153.607 42.4253 153.574 42.2586C153.425 42.4587 153.276 42.6755 153.093 42.8924C152.911 43.1092 152.712 43.276 152.464 43.4261C152.232 43.5762 151.95 43.7096 151.636 43.793C151.321 43.8764 150.94 43.9431 150.493 43.9431H150.443C149.598 43.9431 148.82 43.793 148.107 43.4761C147.395 43.1592 146.782 42.7256 146.285 42.1752C145.772 41.6248 145.374 40.9743 145.093 40.2404C144.811 39.5065 144.662 38.7059 144.662 37.8386C144.662 36.9713 144.795 36.1707 145.076 35.4202C145.358 34.6696 145.755 34.0358 146.252 33.4854C146.766 32.935 147.379 32.518 148.074 32.2011C148.787 31.8842 149.565 31.7341 150.426 31.7341C151.271 31.7341 151.934 31.9009 152.398 32.2345C152.861 32.5681 153.292 32.9684 153.657 33.4354L153.888 32.518C153.955 32.2512 154.021 32.0677 154.104 31.9843C154.187 31.9009 154.336 31.8509 154.551 31.8509L155.893 31.9009C156.075 31.9009 156.224 31.9676 156.373 32.0844C156.522 32.2011 156.588 32.3679 156.588 32.5514V43.1092C156.588 43.3093 156.522 43.4428 156.373 43.5595C156.224 43.6596 156.075 43.7096 155.893 43.7096H154.369C154.137 43.7096 153.971 43.6429 153.872 43.5262C153.806 43.4094 153.739 43.2426 153.706 43.0591ZM147.76 37.8553C147.76 38.3056 147.826 38.7226 147.958 39.1062C148.091 39.4899 148.29 39.8234 148.538 40.1236C148.787 40.4072 149.101 40.6407 149.449 40.7908C149.797 40.9576 150.195 41.0243 150.625 41.0243C151.52 41.0243 152.215 40.7241 152.745 40.1236C153.276 39.5232 153.524 38.7727 153.524 37.872C153.524 37.4383 153.458 37.0214 153.325 36.6377C153.193 36.2374 153.011 35.9039 152.745 35.6036C152.497 35.3034 152.182 35.0699 151.834 34.9031C151.487 34.7363 151.072 34.6529 150.609 34.6529C150.178 34.6529 149.78 34.7363 149.433 34.9031C149.068 35.0699 148.77 35.3034 148.522 35.6036C148.273 35.9039 148.091 36.2375 147.942 36.6211C147.826 37.0047 147.76 37.4217 147.76 37.8553Z" fill="#131313"/>
<path d="M170.568 35.0031C170.27 34.3359 169.872 33.7521 169.342 33.2518C168.829 32.7514 168.216 32.3678 167.537 32.0676C166.858 31.784 166.129 31.6339 165.367 31.6339C164.555 31.6339 163.793 31.8007 163.081 32.1343C162.369 32.4679 161.739 32.9182 161.193 33.4853C160.646 34.0524 160.215 34.7195 159.901 35.4534C159.586 36.1873 159.42 36.9879 159.42 37.8218C159.42 38.6724 159.586 39.473 159.917 40.2236C160.248 40.9741 160.679 41.6246 161.226 42.1917C161.772 42.7588 162.418 43.1757 163.164 43.5093C163.909 43.8429 164.688 43.993 165.516 43.993C166.195 43.993 166.841 43.8763 167.437 43.6594C168.034 43.4426 168.58 43.1257 169.094 42.7421C169.193 42.6587 169.276 42.5753 169.359 42.4919C169.442 42.4085 169.475 42.2918 169.475 42.175C169.475 42.0916 169.442 41.9915 169.359 41.8581L168.481 40.4404C168.381 40.2903 168.266 40.2236 168.116 40.2236C168.017 40.2236 167.918 40.2569 167.802 40.3403C167.686 40.4237 167.57 40.4904 167.437 40.5572C167.123 40.7406 166.791 40.874 166.46 40.9908C166.129 41.1076 165.781 41.1576 165.433 41.1409C165.151 41.1409 164.853 41.0909 164.539 40.9908C164.224 40.8907 163.942 40.7573 163.694 40.5572C163.445 40.357 163.23 40.1402 163.048 39.8566C162.866 39.5898 162.766 39.2729 162.733 38.9226H170.17C170.518 38.9226 170.75 38.7892 170.85 38.5056C170.949 38.2221 170.999 37.7718 170.999 37.138C171.015 36.3707 170.866 35.6702 170.568 35.0031ZM162.733 36.5709C162.783 36.2707 162.882 35.9871 163.048 35.7203C163.213 35.4534 163.412 35.2199 163.644 35.0197C163.876 34.8196 164.141 34.6695 164.439 34.5527C164.721 34.436 165.019 34.3859 165.301 34.3859C166.013 34.3859 166.626 34.6028 167.106 35.0197C167.586 35.4534 167.851 35.9704 167.885 36.5709H162.733Z" fill="#131313"/>
<path d="M168.15 26.5462L167.057 29.0647C166.925 29.3983 166.726 29.5651 166.428 29.5651H164.705C164.539 29.5651 164.44 29.5484 164.39 29.4984C164.341 29.4484 164.324 29.365 164.324 29.2649C164.324 29.1982 164.341 29.1315 164.357 29.0647C164.374 28.998 164.407 28.9146 164.44 28.7979L165.483 26.3461C165.666 26.0125 165.881 25.8457 166.129 25.8457H167.918C168.134 25.8457 168.25 25.9291 168.25 26.0792C168.266 26.2126 168.217 26.3628 168.15 26.5462Z" fill="url(#paint0_linear_161_3438)"/>
<path d="M26.674 17.1725C24.2721 16.8556 21.8869 17.0891 19.6507 17.7729L21.3402 4.61325L18.8722 4.29635C14.4495 3.71259 10.0434 4.91347 6.51516 7.6655C2.98696 10.4175 0.717648 14.3871 0.137897 18.8571C-1.03817 28.0639 5.43848 36.5368 14.5986 37.721C15.3274 37.8211 16.0562 37.8544 16.7685 37.8544C18.4249 37.8544 20.0648 37.5875 21.6218 37.1039L19.9323 50.2636L22.4004 50.5805C23.1292 50.6805 23.858 50.7139 24.5703 50.7139C28.2476 50.7139 31.8089 49.4963 34.7574 47.1946C38.3021 44.4426 40.5549 40.473 41.1346 36.003C42.3107 26.8129 35.8175 18.3567 26.674 17.1725ZM5.0575 19.4909C5.45505 16.3552 7.04522 13.5532 9.54643 11.6184C11.3685 10.2007 13.5053 9.38343 15.7415 9.18328L14.2838 20.5583C11.4016 22.81 9.38079 25.8789 8.43662 29.3648C5.93541 26.863 4.57714 23.277 5.0575 19.4909ZM15.228 32.7507C14.4163 32.6506 13.6378 32.4671 12.8924 32.2002C13.3231 29.1313 14.8967 26.396 17.3482 24.4946C19.8329 22.5598 22.9138 21.7259 26.0445 22.1262C26.8562 22.2262 27.6347 22.4097 28.3801 22.6766C27.9494 25.7455 26.3758 28.4808 23.9243 30.3822C21.4231 32.317 18.3421 33.1676 15.228 32.7507ZM36.1984 35.3859C35.8009 38.5216 34.2107 41.3236 31.7095 43.2584C29.8874 44.6761 27.7506 45.4934 25.5145 45.6935L26.9721 34.3185C29.8543 32.0668 31.8752 28.9979 32.8193 25.512C35.3205 28.0138 36.6788 31.6165 36.1984 35.3859Z" fill="url(#paint1_linear_161_3438)"/>
<path d="M8.58609 54C8.2548 54 7.92352 53.9833 7.59223 53.9332C3.40145 53.3828 0.41987 49.5133 0.966493 45.2935C1.51312 41.0738 5.35604 38.0716 9.54682 38.622C13.7376 39.1724 16.7192 43.0419 16.1726 47.2617C15.9075 49.3132 14.8805 51.1312 13.2572 52.3821C11.899 53.4496 10.2756 54 8.58609 54ZM8.56952 43.5589C7.22781 43.5589 6.06831 44.5597 5.8861 45.9273C5.70389 47.4118 6.74745 48.7795 8.22167 48.9629C8.93394 49.063 9.64621 48.8628 10.2094 48.4125C10.7726 47.9622 11.1536 47.3284 11.2364 46.6112C11.4186 45.1268 10.375 43.7591 8.90081 43.5756C8.80142 43.5589 8.68547 43.5589 8.56952 43.5589Z" fill="#BC56FC"/>
<path d="M32.8034 15.4381C32.4721 15.4381 32.1408 15.4214 31.8096 15.3714C27.6188 14.821 24.6372 10.9514 25.1838 6.73167C25.4489 4.68016 26.4758 2.86215 28.0991 1.61123C29.7224 0.343632 31.7267 -0.190095 33.7641 0.0600894C37.9549 0.610495 40.9365 4.48001 40.3899 8.69979C39.9095 12.586 36.5966 15.4381 32.8034 15.4381ZM32.7868 4.99706C32.1905 4.99706 31.6273 5.19721 31.147 5.56415C30.5838 6.01448 30.2028 6.64828 30.12 7.36547C29.9378 8.8499 30.9813 10.2176 32.4556 10.401C33.9132 10.6012 35.2881 9.53373 35.4868 8.04931C35.669 6.56488 34.6255 5.19721 33.1513 5.01374C33.0187 4.99706 32.9028 4.99706 32.7868 4.99706Z" fill="#BC53FF"/>
</g>
<defs>
<linearGradient id="paint0_linear_161_3438" x1="164.318" y1="27.7096" x2="168.262" y2="27.7096" gradientUnits="userSpaceOnUse">
<stop stop-color="#F1A0AD"/>
<stop offset="0.1538" stop-color="#E087C7"/>
<stop offset="0.3418" stop-color="#D070E0"/>
<stop offset="0.5394" stop-color="#C560F1"/>
<stop offset="0.7508" stop-color="#BE56FC"/>
<stop offset="1" stop-color="#BC53FF"/>
</linearGradient>
<linearGradient id="paint1_linear_161_3438" x1="12.1432" y1="15.5216" x2="36.4126" y2="49.1448" gradientUnits="userSpaceOnUse">
<stop stop-color="#F1A0AD"/>
<stop offset="0.1538" stop-color="#E087C7"/>
<stop offset="0.3418" stop-color="#D070E0"/>
<stop offset="0.5394" stop-color="#C560F1"/>
<stop offset="0.7508" stop-color="#BE56FC"/>
<stop offset="1" stop-color="#BC53FF"/>
</linearGradient>
<clipPath id="clip0_161_3438">
<rect width="171" height="54" fill="white"/>
</clipPath>
</defs>
</svg>
