<svg width="38" height="49" viewBox="0 0 38 49" fill="none" xmlns="http://www.w3.org/2000/svg">
<path d="M24.204 15.5852C22.0245 15.2977 19.8602 15.5096 17.831 16.1301L19.3641 4.18896L17.1246 3.9014C13.1115 3.37169 9.11336 4.46138 5.91186 6.95857C2.71037 9.45576 0.651195 13.0578 0.125128 17.1138C-0.942037 25.4681 4.93488 33.1564 13.2467 34.2309C13.9081 34.3217 14.5694 34.352 15.2157 34.352C16.7188 34.352 18.2068 34.1099 19.6197 33.671L18.0866 45.6121L20.3261 45.8996C20.9874 45.9904 21.6488 46.0207 22.2951 46.0207C25.6319 46.0207 28.8634 44.9159 31.5388 42.8273C34.7554 40.3301 36.7995 36.7281 37.3256 32.6721C38.3927 24.333 32.5008 16.6598 24.204 15.5852ZM4.58918 17.6889C4.94991 14.8436 6.39284 12.301 8.66244 10.5454C10.3158 9.25901 12.2547 8.51742 14.2838 8.33581L12.9612 18.6575C10.3459 20.7007 8.51214 23.4854 7.6554 26.6485C5.3858 24.3784 4.1533 21.1245 4.58918 17.6889ZM13.8179 29.7209C13.0814 29.63 12.375 29.4636 11.6986 29.2214C12.0894 26.4367 13.5173 23.9546 15.7418 22.2293C17.9964 20.4737 20.792 19.7169 23.6328 20.0802C24.3693 20.171 25.0757 20.3375 25.7521 20.5796C25.3613 23.3644 23.9334 25.8464 21.7089 27.5718C19.4393 29.3274 16.6436 30.0992 13.8179 29.7209ZM32.8465 32.1121C32.4858 34.9574 31.0428 37.5 28.7732 39.2556C27.1199 40.542 25.1809 41.2836 23.1518 41.4652L24.4745 31.1435C27.0898 29.1003 28.9235 26.3156 29.7803 23.1525C32.0499 25.4227 33.2824 28.6917 32.8465 32.1121Z" fill="url(#paint0_linear_4902_1866)"/>
<path d="M7.79494 48.9999C7.49433 48.9999 7.19372 48.9847 6.89312 48.9393C3.0904 48.4399 0.384911 44.9287 0.880918 41.0997C1.37692 37.2706 4.864 34.5464 8.66671 35.0459C12.4694 35.5453 15.1749 39.0565 14.6789 42.8855C14.4384 44.7471 13.5065 46.3967 12.0335 47.5318C10.801 48.5004 9.32805 48.9999 7.79494 48.9999ZM7.77991 39.5257C6.56244 39.5257 5.51031 40.4337 5.34497 41.6748C5.17964 43.0217 6.12656 44.2628 7.46427 44.4293C8.11058 44.5201 8.7569 44.3385 9.26793 43.9298C9.77897 43.5212 10.1247 42.9461 10.1998 42.2953C10.3652 40.9483 9.41824 39.7073 8.08052 39.5408C7.99034 39.5257 7.88513 39.5257 7.77991 39.5257Z" fill="#BC56FC"/>
<path d="M29.7695 14.0085C29.4689 14.0085 29.1683 13.9934 28.8677 13.948C25.065 13.4486 22.3595 9.93735 22.8555 6.10832C23.096 4.24678 24.0279 2.59712 25.5009 1.46203C26.9739 0.311812 28.7926 -0.172492 30.6413 0.0545252C34.444 0.553964 37.1495 4.06517 36.6535 7.89419C36.2176 11.4205 33.2115 14.0085 29.7695 14.0085ZM29.7545 4.53434C29.2134 4.53434 28.7024 4.71595 28.2665 5.04891C27.7555 5.45754 27.4098 6.03265 27.3346 6.68343C27.1693 8.0304 28.1162 9.27143 29.4539 9.43791C30.7766 9.61953 32.0241 8.65092 32.2045 7.30395C32.3698 5.95698 31.4229 4.71595 30.0852 4.54947C29.9649 4.53434 29.8597 4.53434 29.7545 4.53434Z" fill="#BC53FF"/>
<defs>
<linearGradient id="paint0_linear_4902_1866" x1="11.0188" y1="14.0872" x2="33.0408" y2="44.597" gradientUnits="userSpaceOnUse">
<stop stop-color="#F1A0AD"/>
<stop offset="0.1538" stop-color="#E087C7"/>
<stop offset="0.3418" stop-color="#D070E0"/>
<stop offset="0.5394" stop-color="#C560F1"/>
<stop offset="0.7508" stop-color="#BE56FC"/>
<stop offset="1" stop-color="#BC53FF"/>
</linearGradient>
</defs>
</svg>
