<svg width="156" height="49" viewBox="0 0 156 49" fill="none" xmlns="http://www.w3.org/2000/svg">
<path d="M44.6004 37.1952C44.4795 37.059 44.4039 36.9379 44.3435 36.8017C44.283 36.6655 44.3435 36.5293 44.4946 36.3628L45.9604 34.925C46.0964 34.804 46.2173 34.7737 46.3382 34.804C46.459 34.8342 46.595 34.9099 46.7159 35.031C46.9275 35.2429 47.1693 35.4699 47.4413 35.6969C47.7133 35.9239 48.0004 36.1207 48.3177 36.3023C48.635 36.4839 48.9675 36.6352 49.3302 36.7412C49.6928 36.8471 50.0857 36.9076 50.4786 36.9076C50.9168 36.9076 51.2946 36.8471 51.6271 36.726C51.9595 36.605 52.2466 36.4536 52.4884 36.2569C52.7302 36.0601 52.9115 35.8331 53.0324 35.5758C53.1533 35.3185 53.2137 35.0612 53.2137 34.7737C53.2137 34.4256 53.108 34.1229 52.8964 33.8959C52.6848 33.6537 52.428 33.457 52.1257 33.2905C51.8235 33.124 51.4911 32.9878 51.1284 32.8819C50.7657 32.7759 50.4484 32.6851 50.1613 32.6095C48.4084 32.0797 47.0635 31.4441 46.1417 30.6722C45.2199 29.9155 44.7515 28.9015 44.7515 27.6756C44.7515 27.0097 44.8875 26.3892 45.1746 25.8443C45.4617 25.2995 45.8546 24.8152 46.3684 24.4066C46.8822 24.0131 47.5017 23.6952 48.227 23.4833C48.9524 23.2715 49.7533 23.1504 50.6297 23.1504C51.5817 23.1504 52.5035 23.3774 53.3951 23.8314C54.2715 24.2855 55.0422 24.8303 55.692 25.4962C55.9489 25.7687 55.9489 26.0562 55.6769 26.3438L54.4831 27.6302C54.332 27.7664 54.196 27.7967 54.0751 27.7513C53.9391 27.7059 53.8031 27.6151 53.6671 27.494C53.4857 27.3426 53.2893 27.1913 53.0626 27.0097C52.836 26.8281 52.5942 26.6767 52.3222 26.5102C52.0502 26.3589 51.7631 26.2378 51.4759 26.1319C51.1888 26.0259 50.8715 25.9805 50.5542 25.9805C50.2822 25.9805 49.9951 25.9957 49.6928 26.0411C49.3906 26.0865 49.1186 26.1622 48.8919 26.2984C48.6502 26.4194 48.4537 26.6011 48.2875 26.8281C48.1213 27.0551 48.0457 27.3578 48.0457 27.7361C48.0457 28.0086 48.1213 28.2507 48.2724 28.4626C48.4235 28.6593 48.6502 28.841 48.9222 28.9923C49.2093 29.1437 49.5417 29.2799 49.9195 29.4161C50.2973 29.5523 50.7355 29.6734 51.1888 29.8096C51.9293 30.0215 52.6244 30.2787 53.2742 30.536C53.924 30.8084 54.4982 31.1414 54.9817 31.5349C55.4653 31.9284 55.8582 32.3976 56.1453 32.9273C56.4324 33.4721 56.5835 34.1078 56.5835 34.8645C56.5835 35.6212 56.4173 36.3174 56.0849 36.9228C55.7524 37.5433 55.2991 38.073 54.74 38.5119C54.1809 38.9508 53.5311 39.2838 52.8057 39.5108C52.0653 39.7378 51.3097 39.8589 50.5239 39.8589C49.3906 39.8589 48.3026 39.6167 47.2599 39.1173C46.2173 38.6178 45.3559 37.9822 44.6004 37.1952Z" fill="#131313"/>
<path d="M58.2578 34.3351C58.2578 33.5633 58.4089 32.8368 58.696 32.1557C58.9832 31.4747 59.3912 30.8693 59.9049 30.3699C60.4187 29.8553 61.0232 29.4618 61.7032 29.1743C62.3832 28.8867 63.1236 28.7354 63.9094 28.7354C64.6952 28.7354 65.4356 28.8867 66.1156 29.1743C66.7956 29.4618 67.4001 29.8704 67.8987 30.3699C68.4125 30.8844 68.8054 31.4747 69.1076 32.1557C69.4099 32.8368 69.5459 33.5633 69.5459 34.3351C69.5459 35.107 69.3947 35.8334 69.1076 36.5145C68.8054 37.1955 68.4125 37.7858 67.8987 38.2852C67.385 38.7847 66.7956 39.1782 66.1156 39.4808C65.4356 39.7835 64.6952 39.9197 63.9094 39.9197C63.1236 39.9197 62.3983 39.7684 61.7032 39.4808C61.008 39.1933 60.4187 38.7998 59.9049 38.2852C59.3912 37.7858 58.9832 37.1955 58.696 36.5145C58.4089 35.8334 58.2578 35.107 58.2578 34.3351ZM61.1592 34.3503C61.1592 34.7437 61.2196 35.107 61.3707 35.4551C61.5067 35.8032 61.7032 36.1058 61.9449 36.3631C62.1867 36.6204 62.4889 36.8323 62.8214 36.9685C63.1538 37.1199 63.5165 37.1804 63.9094 37.1804C64.3023 37.1804 64.665 37.1047 64.9974 36.9685C65.3299 36.8172 65.617 36.6204 65.8738 36.3631C66.1156 36.1058 66.3121 35.8032 66.4632 35.4551C66.6143 35.107 66.6747 34.7437 66.6747 34.3503C66.6747 33.9568 66.5992 33.5935 66.4632 33.2454C66.3121 32.8973 66.1156 32.5946 65.8738 32.3374C65.6321 32.0801 65.3299 31.8682 64.9974 31.7168C64.665 31.5655 64.3023 31.4898 63.9094 31.4898C63.5165 31.4898 63.1538 31.5655 62.8214 31.7168C62.4889 31.8682 62.2018 32.0801 61.9449 32.3374C61.7032 32.5946 61.5067 32.8973 61.3707 33.2454C61.2196 33.5935 61.1592 33.9568 61.1592 34.3503Z" fill="#131313"/>
<path d="M80.5134 39.663C80.3018 39.663 80.1356 39.6327 80.0147 39.5722C79.8938 39.5116 79.8182 39.4208 79.7578 39.2997C79.6974 39.1787 79.652 39.0425 79.6218 38.8911C79.5916 38.7246 79.5462 38.5582 79.5009 38.3614C79.1685 38.7398 78.6849 39.0727 78.0653 39.3603C77.4458 39.6478 76.7809 39.7992 76.0707 39.7992C75.4058 39.7992 74.8164 39.6932 74.2875 39.4814C73.7738 39.2695 73.3355 38.9668 72.988 38.5884C72.6404 38.2101 72.3835 37.7409 72.2022 37.2263C72.0209 36.6966 71.9453 36.1215 71.9453 35.501V29.5985C71.9453 29.4018 72.0057 29.2353 72.1266 29.1142C72.2475 28.9932 72.3986 28.9326 72.58 28.9326H74.3631C74.5898 28.9326 74.756 28.9932 74.8467 29.0991C74.9373 29.205 74.9827 29.3715 74.9827 29.5683V34.9864C74.9827 35.5767 75.1489 36.061 75.4964 36.4091C75.844 36.7572 76.2973 36.9388 76.8564 36.9388C77.0831 36.9388 77.3551 36.8934 77.6422 36.8026C77.9293 36.7118 78.2013 36.5755 78.4431 36.4242C78.6849 36.2577 78.8965 36.061 79.0778 35.834C79.2591 35.6069 79.3347 35.3496 79.3347 35.0621V29.5531C79.3347 29.1445 79.5462 28.9478 79.9694 28.9478H81.7374C81.9338 28.9478 82.1 29.0083 82.2058 29.1294C82.3116 29.2504 82.372 29.3867 82.372 29.5683V39.0273C82.372 39.4662 82.1454 39.6781 81.692 39.6781H80.5134V39.663Z" fill="#131313"/>
<path d="M87.5934 29.5521C87.6085 29.6278 87.6387 29.764 87.6991 29.9759C87.7596 30.1878 87.7898 30.324 87.8049 30.3997C87.9409 30.2181 88.092 30.0364 88.2734 29.8548C88.4547 29.6581 88.6663 29.4916 88.8929 29.3403C89.1196 29.1889 89.3765 29.0678 89.6485 28.9619C89.9205 28.856 90.2076 28.8105 90.5249 28.8105C90.6005 28.8105 90.6609 28.8105 90.7365 28.8105C90.8121 28.8105 90.8725 28.8105 90.9481 28.8257C91.1445 28.8408 91.3863 28.9014 91.6432 28.9922C91.9001 29.083 92.1569 29.1889 92.3836 29.3251C92.6103 29.4462 92.8067 29.5824 92.973 29.7186C93.1392 29.8548 93.2147 29.9759 93.2147 30.097C93.2147 30.1878 93.1845 30.2786 93.109 30.3997L92.2325 31.8223C92.0965 32.0191 91.9454 32.125 91.7792 32.125C91.7187 32.125 91.6281 32.0947 91.5223 32.0493C91.4014 32.0039 91.2805 31.9434 91.1445 31.8677C90.9481 31.7164 90.7667 31.6256 90.6156 31.565C90.4645 31.5045 90.2832 31.4742 90.0867 31.4742C89.7694 31.4742 89.4823 31.5348 89.2254 31.6558C88.9685 31.7769 88.7569 31.9434 88.5756 32.1401C88.3943 32.3369 88.2583 32.579 88.1676 32.8363C88.0769 33.0936 88.0316 33.3358 88.0316 33.5931V39.1171C88.0316 39.4804 87.8352 39.662 87.4423 39.662H85.6289C85.2511 39.662 85.0547 39.4804 85.0547 39.1171V29.5521C85.0547 29.3705 85.1151 29.2192 85.236 29.1284C85.3569 29.0376 85.4778 28.9922 85.6289 28.9922H87.0191C87.2005 28.9922 87.3214 29.0527 87.3969 29.1738C87.4725 29.2949 87.548 29.4008 87.5934 29.5521Z" fill="#131313"/>
<path d="M99.7104 37.1955C100.149 37.1804 100.526 37.1199 100.844 36.9988C101.161 36.8777 101.494 36.7415 101.841 36.5902C101.992 36.5145 102.083 36.4842 102.143 36.4842C102.249 36.4842 102.355 36.5599 102.476 36.7264L103.413 38.0733C103.473 38.1944 103.503 38.2701 103.503 38.3155C103.503 38.4517 103.458 38.5425 103.367 38.6182C103.277 38.6938 103.201 38.7544 103.126 38.8149C102.642 39.1327 102.128 39.39 101.554 39.6019C100.98 39.8138 100.39 39.9197 99.7708 39.9197C99.0002 39.9197 98.2748 39.7684 97.5948 39.4808C96.9148 39.1933 96.3255 38.7998 95.8117 38.2852C95.2979 37.7858 94.905 37.1955 94.6179 36.5145C94.3308 35.8334 94.1797 35.107 94.1797 34.3351C94.1797 33.5633 94.3308 32.8368 94.6179 32.1557C94.905 31.4747 95.313 30.8693 95.8117 30.3699C96.3255 29.8553 96.9148 29.4618 97.5948 29.1743C98.2748 28.8867 99.0002 28.7354 99.7708 28.7354C100.36 28.7354 100.919 28.8262 101.448 29.0229C101.977 29.2197 102.491 29.4769 103.02 29.8099H103.005C103.126 29.8856 103.216 29.9612 103.292 30.0521C103.367 30.1429 103.398 30.2337 103.398 30.3547C103.398 30.385 103.398 30.4304 103.382 30.4758C103.382 30.5212 103.352 30.5666 103.322 30.5969L102.476 32.0649C102.446 32.1255 102.4 32.1709 102.34 32.2163C102.279 32.2617 102.204 32.2768 102.128 32.2768C102.068 32.2768 101.947 32.2314 101.781 32.1255C101.539 31.9287 101.222 31.7622 100.859 31.626C100.496 31.505 100.133 31.4444 99.7859 31.4444C99.3779 31.4444 99.0002 31.5201 98.6526 31.6866C98.305 31.8531 98.0028 32.0649 97.7459 32.3374C97.489 32.6098 97.2926 32.9276 97.1415 33.2757C96.9904 33.6389 96.9299 34.0173 96.9299 34.4108C96.9299 35.2432 97.2019 35.9242 97.7308 36.4388C98.2597 36.9231 98.9246 37.1955 99.7104 37.1955Z" fill="#131313"/>
<path d="M111.267 37.3142C111.584 37.3293 111.901 37.2839 112.204 37.178C112.506 37.072 112.808 36.9509 113.095 36.7845C113.216 36.7239 113.322 36.6634 113.428 36.5877C113.533 36.512 113.624 36.4818 113.715 36.4818C113.851 36.4818 113.956 36.5423 114.047 36.6785L114.848 37.9649C114.924 38.086 114.954 38.1768 114.954 38.2525C114.954 38.3736 114.924 38.4644 114.848 38.5401C114.772 38.6157 114.697 38.6914 114.606 38.7671C114.138 39.1152 113.639 39.3876 113.095 39.5995C112.551 39.7962 111.962 39.9022 111.342 39.9022C110.587 39.9022 109.876 39.7508 109.196 39.4633C108.516 39.1757 107.927 38.7822 107.428 38.2676C106.93 37.7531 106.522 37.178 106.235 36.4818C105.932 35.8007 105.781 35.0743 105.781 34.3024C105.781 33.5457 105.932 32.8344 106.219 32.1533C106.507 31.4722 106.899 30.882 107.398 30.3674C107.897 29.8529 108.471 29.4442 109.121 29.1415C109.771 28.8388 110.466 28.6875 111.206 28.6875C111.901 28.6875 112.566 28.8237 113.186 29.081C113.805 29.3383 114.364 29.7015 114.833 30.1555C115.301 30.6096 115.679 31.1393 115.951 31.7447C116.223 32.35 116.359 32.9857 116.359 33.6819C116.359 34.257 116.314 34.6656 116.223 34.9229C116.132 35.1802 115.921 35.3013 115.604 35.3013H108.819C108.849 35.6191 108.939 35.9067 109.106 36.1488C109.272 36.391 109.468 36.6028 109.695 36.7845C109.922 36.9661 110.194 37.0871 110.466 37.178C110.723 37.2688 110.995 37.3142 111.267 37.3142ZM108.803 33.1824H113.488C113.458 32.6376 113.216 32.1684 112.778 31.7749C112.34 31.3966 111.78 31.1998 111.131 31.1998C110.874 31.1998 110.602 31.2452 110.345 31.3512C110.088 31.4571 109.846 31.5933 109.619 31.7749C109.408 31.9566 109.227 32.1684 109.075 32.4106C108.939 32.6527 108.849 32.91 108.803 33.1824Z" fill="#131313"/>
<path d="M119.484 39.1173V23.998C119.484 23.6347 119.651 23.4531 119.983 23.4531H121.902C122.265 23.4531 122.446 23.6347 122.446 23.998V30.1123C122.748 29.7188 123.126 29.401 123.564 29.1588C124.003 28.9167 124.562 28.7956 125.212 28.7956C125.952 28.7956 126.632 28.947 127.267 29.2345C127.886 29.5221 128.43 29.9156 128.868 30.4301C129.307 30.9296 129.654 31.5198 129.911 32.1857C130.168 32.8517 130.289 33.5781 130.289 34.35C130.289 35.1067 130.153 35.818 129.896 36.4991C129.639 37.1801 129.276 37.7552 128.823 38.2547C128.37 38.7541 127.841 39.1476 127.221 39.4352C126.602 39.7227 125.937 39.8741 125.212 39.8741C124.516 39.8741 123.927 39.753 123.474 39.5108C123.005 39.2687 122.597 38.8903 122.235 38.3606C122.204 38.5271 122.174 38.6633 122.144 38.7844C122.114 38.9054 122.083 39.0417 122.053 39.1627C121.978 39.42 121.827 39.5714 121.57 39.6016C121.328 39.6319 121.071 39.647 120.829 39.647H119.998C119.651 39.6319 119.484 39.4503 119.484 39.1173ZM122.159 34.3954C122.159 34.7889 122.235 35.1521 122.371 35.5153C122.507 35.8634 122.703 36.1661 122.945 36.4234C123.187 36.6807 123.459 36.8774 123.791 37.0288C124.108 37.1801 124.441 37.2558 124.788 37.2558C125.151 37.2558 125.484 37.1801 125.801 37.0288C126.118 36.8774 126.39 36.6655 126.617 36.4083C126.844 36.151 127.04 35.8331 127.176 35.4851C127.312 35.137 127.388 34.7586 127.388 34.3651C127.388 33.9716 127.327 33.5932 127.191 33.2451C127.055 32.8819 126.889 32.5792 126.662 32.3219C126.436 32.0647 126.164 31.8528 125.861 31.7014C125.544 31.5501 125.212 31.4744 124.864 31.4744C124.501 31.4744 124.154 31.5501 123.836 31.7014C123.519 31.8528 123.232 32.0647 122.99 32.3219C122.748 32.5792 122.552 32.8971 122.401 33.2451C122.25 33.6084 122.189 33.9716 122.189 34.3651V34.3954H122.159Z" fill="#131313"/>
<path d="M140.227 39.0712C140.197 38.9199 140.182 38.814 140.167 38.708C140.152 38.6172 140.137 38.4961 140.106 38.3448C139.97 38.5264 139.834 38.7232 139.668 38.9199C139.502 39.1166 139.321 39.268 139.094 39.4042C138.882 39.5404 138.625 39.6615 138.338 39.7372C138.051 39.8128 137.704 39.8734 137.296 39.8734H137.25C136.48 39.8734 135.769 39.7372 135.12 39.4496C134.47 39.1621 133.911 38.7686 133.457 38.2691C132.989 37.7697 132.626 37.1794 132.369 36.5135C132.113 35.8476 131.977 35.1211 131.977 34.3341C131.977 33.5472 132.097 32.8207 132.354 32.1396C132.611 31.4586 132.974 30.8835 133.427 30.384C133.896 29.8846 134.455 29.5062 135.089 29.2187C135.739 28.9311 136.449 28.7949 137.235 28.7949C138.006 28.7949 138.61 28.9463 139.033 29.249C139.457 29.5516 139.849 29.9149 140.182 30.3386L140.393 29.5062C140.454 29.2641 140.514 29.0976 140.59 29.0219C140.665 28.9463 140.801 28.9009 140.998 28.9009L142.222 28.9463C142.388 28.9463 142.524 29.0068 142.66 29.1127C142.796 29.2187 142.857 29.37 142.857 29.5365V39.1167C142.857 39.2983 142.796 39.4193 142.66 39.5253C142.524 39.6161 142.388 39.6615 142.222 39.6615H140.832C140.62 39.6615 140.469 39.601 140.378 39.495C140.318 39.3891 140.257 39.2377 140.227 39.0712ZM134.802 34.3493C134.802 34.7579 134.863 35.1363 134.984 35.4844C135.105 35.8325 135.286 36.1352 135.513 36.4076C135.739 36.6649 136.026 36.8767 136.344 37.013C136.661 37.1643 137.024 37.2248 137.417 37.2248C138.233 37.2248 138.867 36.9524 139.351 36.4076C139.834 35.8627 140.061 35.1817 140.061 34.3644C140.061 33.9709 140.001 33.5926 139.88 33.2445C139.759 32.8812 139.593 32.5785 139.351 32.3061C139.124 32.0337 138.837 31.8218 138.52 31.6705C138.202 31.5191 137.825 31.4435 137.401 31.4435C137.009 31.4435 136.646 31.5191 136.329 31.6705C135.996 31.8218 135.724 32.0337 135.497 32.3061C135.271 32.5785 135.105 32.8812 134.969 33.2293C134.863 33.5774 134.802 33.9558 134.802 34.3493Z" fill="#131313"/>
<path d="M155.607 31.7622C155.335 31.1569 154.973 30.6272 154.489 30.1731C154.021 29.7191 153.462 29.371 152.842 29.0986C152.222 28.8413 151.558 28.7051 150.862 28.7051C150.122 28.7051 149.427 28.8564 148.777 29.1591C148.127 29.4618 147.553 29.8704 147.054 30.385C146.556 30.8996 146.163 31.505 145.876 32.1709C145.589 32.8368 145.438 33.5633 145.438 34.32C145.438 35.0918 145.589 35.8183 145.891 36.4993C146.193 37.1804 146.586 37.7706 147.085 38.2852C147.583 38.7998 148.173 39.1782 148.853 39.4808C149.533 39.7835 150.243 39.9197 150.998 39.9197C151.618 39.9197 152.207 39.8138 152.751 39.6171C153.295 39.4203 153.794 39.1327 154.262 38.7846C154.353 38.709 154.429 38.6333 154.504 38.5576C154.58 38.482 154.61 38.376 154.61 38.2701C154.61 38.1944 154.58 38.1036 154.504 37.9825L153.703 36.6961C153.613 36.5599 153.507 36.4993 153.371 36.4993C153.28 36.4993 153.19 36.5296 153.084 36.6053C152.978 36.681 152.872 36.7415 152.751 36.802C152.464 36.9685 152.162 37.0896 151.86 37.1955C151.558 37.3015 151.24 37.3469 150.923 37.3317C150.666 37.3317 150.394 37.2863 150.107 37.1955C149.82 37.1047 149.563 36.9836 149.336 36.802C149.11 36.6204 148.913 36.4237 148.747 36.1664C148.581 35.9242 148.49 35.6367 148.46 35.3189H155.245C155.562 35.3189 155.774 35.1978 155.864 34.9405C155.955 34.6832 156 34.2746 156 33.6995C156.015 33.0033 155.879 32.3676 155.607 31.7622ZM148.46 33.1849C148.505 32.9125 148.596 32.6552 148.747 32.413C148.898 32.1709 149.079 31.959 149.291 31.7774C149.502 31.5958 149.744 31.4596 150.016 31.3536C150.273 31.2477 150.545 31.2023 150.802 31.2023C151.452 31.2023 152.011 31.399 152.449 31.7774C152.887 32.1709 153.129 32.64 153.159 33.1849H148.46Z" fill="#131313"/>
<path d="M153.397 24.0888L152.4 26.3741C152.279 26.6768 152.097 26.8281 151.825 26.8281H150.254C150.103 26.8281 150.012 26.813 149.967 26.7676C149.921 26.7222 149.906 26.6465 149.906 26.5557C149.906 26.4952 149.921 26.4346 149.936 26.3741C149.952 26.3135 149.982 26.2379 150.012 26.1319L150.964 23.9072C151.13 23.6045 151.327 23.4531 151.553 23.4531H153.185C153.382 23.4531 153.488 23.5288 153.488 23.665C153.503 23.7861 153.457 23.9223 153.397 24.0888Z" fill="url(#paint0_linear_933_2402)"/>
<path d="M24.3339 15.5852C22.1428 15.2977 19.9668 15.5096 17.9268 16.1301L19.4681 4.18896L17.2166 3.9014C13.1819 3.37169 9.16229 4.46138 5.94361 6.95857C2.72492 9.45576 0.654691 13.0578 0.125799 17.1138C-0.947095 25.4681 4.96138 33.1564 13.3179 34.2309C13.9828 34.3217 14.6477 34.352 15.2974 34.352C16.8086 34.352 18.3046 34.1099 19.725 33.671L18.1837 45.6121L20.4352 45.8996C21.1001 45.9904 21.765 46.0207 22.4148 46.0207C25.7695 46.0207 29.0184 44.9159 31.7082 42.8273C34.942 40.3301 36.9971 36.7281 37.526 32.6721C38.5989 24.333 32.6753 16.6598 24.3339 15.5852ZM4.61382 17.6889C4.97649 14.8436 6.42716 12.301 8.70895 10.5454C10.3712 9.25901 12.3205 8.51742 14.3605 8.33581L13.0308 18.6575C10.4014 20.7007 8.55784 23.4854 7.6965 26.6485C5.41471 24.3784 4.1756 21.1245 4.61382 17.6889ZM13.8921 29.7209C13.1516 29.63 12.4414 29.4636 11.7614 29.2214C12.1543 26.4367 13.5899 23.9546 15.8263 22.2293C18.093 20.4737 20.9037 19.7169 23.7597 20.0802C24.5001 20.171 25.2104 20.3375 25.8904 20.5796C25.4975 23.3644 24.0619 25.8464 21.8255 27.5718C19.5437 29.3274 16.733 30.0992 13.8921 29.7209ZM33.0229 32.1121C32.6602 34.9574 31.2095 37.5 28.9277 39.2556C27.2655 40.542 25.3162 41.2836 23.2761 41.4652L24.6059 31.1435C27.2353 29.1003 29.0788 26.3156 29.9402 23.1525C32.222 25.4227 33.4611 28.6917 33.0229 32.1121Z" fill="url(#paint1_linear_933_2402)"/>
<path d="M7.83824 48.9994C7.53602 48.9994 7.23379 48.9843 6.93157 48.9389C3.10844 48.4394 0.388422 44.9282 0.887092 41.0992C1.38576 37.2702 4.89156 34.5459 8.71469 35.0454C12.5378 35.5448 15.2578 39.056 14.7592 42.8851C14.5174 44.7466 13.5805 46.3963 12.0996 47.5313C10.8605 48.4999 9.37958 48.9994 7.83824 48.9994ZM7.82313 39.5252C6.59912 39.5252 5.54134 40.4333 5.37512 41.6743C5.20889 43.0213 6.1609 44.2623 7.5058 44.4288C8.15558 44.5196 8.80536 44.338 9.31914 43.9293C9.83292 43.5207 10.1805 42.9456 10.256 42.2948C10.4223 40.9478 9.47025 39.7068 8.12535 39.5403C8.03469 39.5252 7.92891 39.5252 7.82313 39.5252Z" fill="#BC56FC"/>
<path d="M29.932 14.0085C29.6298 14.0085 29.3275 13.9934 29.0253 13.948C25.2022 13.4486 22.4822 9.93735 22.9808 6.10832C23.2226 4.24678 24.1595 2.59712 25.6404 1.46203C27.1213 0.311812 28.9498 -0.172492 30.8084 0.0545252C34.6316 0.553964 37.3516 4.06517 36.8529 7.89419C36.4147 11.4205 33.3924 14.0085 29.932 14.0085ZM29.9169 4.53434C29.3729 4.53434 28.8591 4.71595 28.4209 5.04891C27.9071 5.45754 27.5595 6.03265 27.484 6.68343C27.3178 8.0304 28.2698 9.27143 29.6147 9.43791C30.9444 9.61953 32.1987 8.65092 32.38 7.30395C32.5462 5.95698 31.5942 4.71595 30.2493 4.54947C30.1284 4.53434 30.0227 4.53434 29.9169 4.53434Z" fill="#BC53FF"/>
<defs>
<linearGradient id="paint0_linear_933_2402" x1="149.901" y1="25.1444" x2="153.498" y2="25.1444" gradientUnits="userSpaceOnUse">
<stop stop-color="#F1A0AD"/>
<stop offset="0.1538" stop-color="#E087C7"/>
<stop offset="0.3418" stop-color="#D070E0"/>
<stop offset="0.5394" stop-color="#C560F1"/>
<stop offset="0.7508" stop-color="#BE56FC"/>
<stop offset="1" stop-color="#BC53FF"/>
</linearGradient>
<linearGradient id="paint1_linear_933_2402" x1="11.0779" y1="14.0872" x2="33.0626" y2="44.7087" gradientUnits="userSpaceOnUse">
<stop stop-color="#F1A0AD"/>
<stop offset="0.1538" stop-color="#E087C7"/>
<stop offset="0.3418" stop-color="#D070E0"/>
<stop offset="0.5394" stop-color="#C560F1"/>
<stop offset="0.7508" stop-color="#BE56FC"/>
<stop offset="1" stop-color="#BC53FF"/>
</linearGradient>
</defs>
</svg>
