<svg width="40" height="40" viewBox="0 0 40 40" fill="none" xmlns="http://www.w3.org/2000/svg">
<path d="M11 23.9998C10.5624 23.9998 10.3094 23.6904 10 23.9998C9.69056 24.3093 10 24.5622 10 24.9998V27.9998C7.87328 25.5948 5.99956 23.2103 6 19.9998C5.99928 19.5145 5.94213 18.4817 6 17.9998C6.03148 17.7822 6.05545 17.2126 6 16.9998C5.94455 16.787 6.13369 17.1744 6 16.9998C5.86631 16.8252 6.19097 16.1089 6 15.9998C5.80902 15.8908 5.21833 16.0262 5 15.9998C4.78167 15.9734 4.21146 15.9394 4 15.9998C3.78854 16.0602 4.17145 16.8621 4 16.9998C3.82855 17.1376 3.10457 16.8064 3 16.9998C2.89543 17.1933 3.0213 17.7809 3 17.9998C2.92548 18.613 2.99911 19.3822 3 19.9998C3.00225 23.937 4.42932 27.0177 7 29.9998H5C4.56239 29.9998 3.30943 30.6904 3 30.9998C2.69056 31.3093 3 31.5622 3 31.9998C3 32.4374 2.69056 32.6904 3 32.9998C3.30943 33.3093 4.56239 33.9998 5 33.9998H11C11.258 33.9965 11.7721 33.1209 12 32.9998C12.2279 32.8787 12.8529 33.2118 13 32.9998C12.9818 33.0262 13.0181 32.9751 13 32.9998C12.9901 33.0163 13.0115 32.9833 13 32.9998C13.0786 32.8671 12.9626 32.1494 13 31.9998C12.9896 32.087 13.0248 31.9157 13 31.9998C13 32.0526 13.0049 31.9503 13 31.9998V24.9998C13 24.5622 12.3094 24.3093 12 23.9998C11.6906 23.6904 11.4376 23.9998 11 23.9998ZM14 9.99983H11C13.4056 7.873 16.789 5.99929 20 5.99983C20.4853 5.99877 20.5183 5.94053 21 5.99983C21.4348 6.05234 21.6554 6.27012 22 5.99983C22.3446 5.72954 22.9475 5.43459 23 4.99983C23.0525 4.56507 22.2703 4.34439 22 3.99983C21.7297 3.65528 21.4348 3.05234 21 2.99983C20.3868 2.92608 20.6176 2.99861 20 2.99983C16.0628 3.00208 11.9821 4.42915 9 6.99983V4.99983C9 4.56222 8.30943 3.30927 8 2.99983C7.69056 2.6904 7.43761 2.99983 7 2.99983C6.56239 2.99983 6.30943 2.6904 6 2.99983C5.69056 3.30927 5 4.56222 5 4.99983V10.9998C5.01018 11.109 5.9674 11.8951 6 11.9998C5.88615 11.8264 6.03978 12.2034 6 11.9998C6.10883 12.1581 5.8426 12.8897 6 12.9998C5.98185 12.9866 6.01815 13.013 6 12.9998C5.97525 12.9866 6.0231 13.0163 6 12.9998C6.09393 13.0562 6.89646 12.964 7 12.9998C6.85316 12.9903 7.13894 13.0483 7 12.9998C6.9703 12.9998 7.0297 12.9998 7 12.9998H14C14.4376 12.9998 14.6906 12.3093 15 11.9998C15.3094 11.6904 15 11.4374 15 10.9998C15 10.5622 15.3094 10.3093 15 9.99983C14.6906 9.6904 14.4376 9.99983 14 9.99983ZM33 26.9998C32.9601 26.7968 33.1137 27.1727 33 26.9998C32.8907 26.8414 33.158 26.1098 33 25.9998C32.9818 25.9866 33.0198 26.013 33 25.9998C32.9835 25.9883 33.0182 26.0114 33 25.9998C32.7906 25.8831 32.2376 26.0314 32 25.9998C31.9472 25.9949 32.0528 25.9998 32 25.9998H25C24.5624 25.9998 24.3094 26.6904 24 26.9998C23.6906 27.3093 24 27.5622 24 27.9998C24 28.4374 23.6906 28.6904 24 28.9998C24.3094 29.3093 24.5624 28.9998 25 28.9998H28C25.5949 31.1264 23.2104 33.0001 20 32.9998C19.5146 33.0004 18.4817 33.0597 18 32.9998C17.5652 32.9473 17.3446 32.7295 17 32.9998C16.6554 33.2701 16.0525 33.5651 16 33.9998C15.9475 34.4346 16.7297 34.6553 17 34.9998C17.2703 35.3444 17.5652 35.9473 18 35.9998C18.6132 36.0736 19.3823 36 20 35.9998C23.9372 35.9976 27.0179 34.5705 30 31.9998V33.9998C30 34.4374 30.6906 35.6904 31 35.9998C31.3094 36.3093 31.5624 35.9998 32 35.9998C32.4376 35.9998 32.6906 36.3093 33 35.9998C33.3094 35.6904 34 34.4374 34 33.9998V27.9998C33.9893 27.8906 33.0332 27.1045 33 26.9998ZM34 8.99983C34.4376 8.99983 35.6906 8.30927 36 7.99983C36.3094 7.6904 36 7.43744 36 6.99983C36 6.56222 36.3094 6.30927 36 5.99983C35.6906 5.6904 34.4376 4.99983 34 4.99983H28C27.8925 5.01033 27.1031 5.96754 27 5.99983C26.8 6.04028 27.1705 5.8877 27 5.99983C26.8423 6.10885 26.1097 5.8426 26 5.99983C25.9868 6.01633 26.0132 5.98168 26 5.99983C25.9884 6.01633 26.0116 5.98168 26 5.99983C25.8824 6.21058 26.0306 6.76044 26 6.99983C25.9951 7.04933 26 6.94703 26 6.99983V13.9998C26 14.4374 26.6906 14.6904 27 14.9998C27.3094 15.3093 27.5624 14.9998 28 14.9998C28.4376 14.9998 28.6906 15.3093 29 14.9998C29.3094 14.6904 29 14.4374 29 13.9998V10.9998C31.1267 13.4055 33.0004 16.7889 33 19.9998C33.0002 20.4852 33.0584 20.518 33 20.9998C32.9478 21.4341 32.7303 21.6556 33 21.9998C33.2697 22.3441 33.5659 22.9466 34 22.9998C33.9327 23 34.0668 23.0077 34 22.9998C34.4028 22.9991 34.6988 22.2673 35 21.9998C35.3012 21.7324 35.9517 21.3997 36 20.9998C36.0751 20.3867 36.0003 20.6175 36 19.9998C35.9977 16.0626 34.5707 11.982 32 8.99983H34Z" fill="white"/>
</svg>
